<?xml version="1.0" encoding="UTF-8" standalone="no"?>
<!-- Created with Inkscape (http://www.inkscape.org/) -->
<svg width="138.64061mm" height="37.581417mm" viewBox="0 0 138.64061 37.581417" version="1.1" id="svg1" xmlns="http://www.w3.org/2000/svg" xmlns:svg="http://www.w3.org/2000/svg">
  <defs id="defs1"/>
  <g id="layer1" transform="translate(-29.504712,-42.982966)">
    <g id="g106" transform="matrix(0.35277777,0,0,0.35277777,-13.19692,-29.568603)">
      <g id="g47">
        <g id="g27">
          <path style="fill:#005693;stroke:none" d="m 206.415,279.85 c -0.428,0 -0.761,0.365 -0.761,0.857 0,0.476 0.302,0.809 0.73,0.809 0.444,0 0.745,-0.349 0.745,-0.857 0,-0.444 -0.317,-0.809 -0.714,-0.809 z m 0.54,3.332 0.016,-0.238 c 0,-0.127 -0.032,-0.191 -0.127,-0.191 -0.111,0 -0.175,0.048 -0.317,0.222 -0.27,0.318 -1.016,0.794 -1.428,0.92 -0.317,0.096 -0.397,0.143 -0.397,0.27 0,0.095 0.08,0.175 0.207,0.175 h 0.222 c 0.555,0 0.666,0.19 0.666,1.047 v 3.727 c 0,1 -0.111,1.174 -0.761,1.206 -0.397,0.032 -0.476,0.063 -0.476,0.238 0,0.127 0.079,0.19 0.238,0.19 0.031,0 0.079,0 0.142,-0.016 0.032,0 0.143,0 0.54,-0.031 0.586,-0.048 0.666,-0.048 0.888,-0.048 0.222,0 0.349,0 0.745,0.032 0.587,0.047 0.667,0.047 0.698,0.047 0.064,0.016 0.112,0.016 0.143,0.016 0.159,0 0.238,-0.063 0.238,-0.19 0,-0.175 -0.079,-0.206 -0.476,-0.238 -0.65,-0.032 -0.761,-0.206 -0.761,-1.206 z" id="path1"/>
          <path style="fill:#005693;stroke:none" d="m 212.03,283.039 c 0,-0.19 -0.032,-0.286 -0.111,-0.286 -0.048,0 -0.096,0.032 -0.127,0.08 -0.46,0.571 -0.793,0.84 -1.428,1.126 -0.412,0.174 -0.412,0.19 -0.428,0.301 -0.016,0.095 0.063,0.127 0.222,0.127 h 0.174 c 0.444,0 0.54,0.175 0.54,0.92 v 3.807 c 0,1.016 -0.111,1.174 -0.762,1.206 -0.396,0.032 -0.476,0.063 -0.476,0.238 0,0.127 0.08,0.19 0.238,0.19 0.032,0 0.08,0 0.143,-0.016 0.032,0 0.143,0 0.539,-0.031 0.571,-0.048 0.667,-0.048 0.825,-0.048 0.302,0 0.381,0 0.809,0.032 0.603,0.047 0.666,0.047 0.698,0.047 0.064,0.016 0.111,0.016 0.143,0.016 0.159,0 0.238,-0.063 0.238,-0.19 0,-0.175 -0.079,-0.206 -0.476,-0.238 -0.65,-0.032 -0.761,-0.19 -0.761,-1.206 v -3.616 c 0,-0.619 0.111,-0.889 0.539,-1.301 0.428,-0.428 0.983,-0.666 1.539,-0.666 1.126,0 1.681,0.666 1.681,2.046 v 3.537 c 0,1.016 -0.111,1.174 -0.761,1.206 -0.397,0.032 -0.476,0.063 -0.476,0.238 0,0.127 0.079,0.19 0.238,0.19 0.031,0 0.079,0 0.142,-0.016 0.032,0 0.143,0 0.54,-0.031 0.603,-0.048 0.666,-0.048 0.904,-0.048 0.206,0 0.333,0 0.73,0.032 0.602,0.047 0.666,0.047 0.714,0.047 0.063,0.016 0.111,0.016 0.142,0.016 0.159,0 0.238,-0.063 0.238,-0.19 0,-0.175 -0.079,-0.206 -0.476,-0.238 -0.666,-0.032 -0.777,-0.19 -0.777,-1.206 v -3.553 c 0,-0.73 0.127,-1.047 0.555,-1.443 0.413,-0.397 0.936,-0.603 1.475,-0.603 1.174,0 1.73,0.698 1.73,2.189 v 3.41 c 0,1.016 -0.111,1.174 -0.778,1.206 -0.396,0.032 -0.476,0.063 -0.476,0.238 0,0.127 0.08,0.19 0.238,0.19 0.032,0 0.095,0 0.143,-0.016 0.032,0 0.159,0 0.555,-0.031 0.571,-0.048 0.651,-0.048 0.857,-0.048 0.254,0 0.365,0 0.777,0.032 0.603,0.047 0.666,0.047 0.698,0.047 0.064,0.016 0.111,0.016 0.143,0.016 0.159,0 0.238,-0.063 0.238,-0.19 0,-0.175 -0.079,-0.206 -0.476,-0.238 -0.65,-0.032 -0.761,-0.19 -0.761,-1.206 v -3.442 c 0,-1.079 -0.143,-1.618 -0.54,-2.078 -0.396,-0.444 -1.078,-0.73 -1.761,-0.73 -0.824,0 -1.697,0.445 -2.442,1.254 -0.159,0.158 -0.191,0.19 -0.238,0.19 -0.08,0 -0.127,-0.064 -0.191,-0.206 -0.317,-0.778 -1.047,-1.238 -1.951,-1.238 -0.777,0 -1.475,0.334 -2.363,1.111 -0.191,0.174 -0.191,0.174 -0.254,0.174 -0.08,0 -0.095,-0.031 -0.095,-0.206 z" id="path2"/>
          <path style="fill:#005693;stroke:none" d="m 225.679,289.225 c -0.476,0 -0.73,0.302 -0.73,0.825 0,0.54 0.254,0.841 0.73,0.841 0.476,0 0.729,-0.301 0.729,-0.825 0,-0.539 -0.253,-0.841 -0.729,-0.841 z" id="path3"/>
          <path style="fill:#005693;stroke:none" d="m 235.359,285.625 c 0,-0.318 0.126,-0.429 0.444,-0.429 h 5.092 c 0.317,0 0.396,0.08 0.396,0.429 v 3.458 c 0,1.062 -0.127,1.189 -1.11,1.189 -0.317,0 -0.428,0.064 -0.428,0.222 0,0.159 0.111,0.238 0.285,0.238 0.048,0 0.19,-0.015 0.333,-0.015 l 0.127,-0.016 h 0.143 c 0.19,-0.016 0.079,0 0.301,-0.016 0.635,-0.048 0.746,-0.048 0.952,-0.048 0.254,0 0.46,0 0.73,0.016 0.682,0.048 0.46,0.032 0.65,0.048 0.365,0.016 0.206,0 0.492,0.031 h 0.111 c 0.174,0 0.285,-0.079 0.285,-0.238 0,-0.158 -0.111,-0.222 -0.428,-0.222 -0.983,0 -1.11,-0.127 -1.11,-1.189 v -7.377 c 0,-1.062 0.127,-1.189 1.11,-1.189 0.317,0 0.428,-0.064 0.428,-0.222 0,-0.159 -0.111,-0.238 -0.285,-0.238 -0.048,0 -0.191,0.016 -0.333,0.016 -0.54,0.031 -0.365,0.015 -0.587,0.031 -0.682,0.048 -0.714,0.048 -1.079,0.048 -0.127,0 -0.365,-0.016 -0.587,-0.016 l -0.349,-0.032 c -0.222,-0.016 -0.079,0 -0.444,-0.016 l -0.127,-0.015 h -0.111 c -0.127,-0.016 -0.222,-0.016 -0.222,-0.016 -0.174,0 -0.285,0.079 -0.285,0.238 0,0.158 0.111,0.222 0.428,0.222 0.983,0 1.11,0.127 1.11,1.189 v 2.602 c 0,0.27 -0.127,0.412 -0.396,0.412 h -5.156 c -0.333,0 -0.38,-0.047 -0.38,-0.412 v -2.602 c 0,-1.062 0.126,-1.189 1.11,-1.189 0.317,0 0.428,-0.064 0.428,-0.222 0,-0.159 -0.111,-0.238 -0.285,-0.238 -0.048,0 -0.191,0.016 -0.333,0.016 -0.54,0.031 -0.349,0.015 -0.571,0.031 -0.667,0.048 -0.746,0.048 -1.016,0.048 -0.19,0 -0.412,0 -0.666,-0.016 l -0.174,-0.016 -0.159,-0.016 c -0.238,-0.016 -0.095,0 -0.46,-0.016 l -0.127,-0.015 h -0.111 c -0.127,-0.016 -0.222,-0.016 -0.222,-0.016 -0.175,0 -0.286,0.079 -0.286,0.238 0,0.158 0.111,0.222 0.429,0.222 0.983,0 1.11,0.127 1.11,1.189 v 7.377 c 0,1.062 -0.127,1.189 -1.11,1.189 -0.318,0 -0.429,0.064 -0.429,0.222 0,0.159 0.111,0.238 0.286,0.238 0.047,0 0.19,-0.015 0.333,-0.015 0.555,-0.032 0.349,-0.016 0.587,-0.032 0.65,-0.048 0.73,-0.048 1.031,-0.048 0.174,0 0.397,0 0.635,0.016 l 0.349,0.032 c 0.222,0.016 0.11,0 0.301,0.016 0.365,0.016 0.206,0 0.492,0.031 h 0.111 c 0.174,0 0.285,-0.079 0.285,-0.238 0,-0.158 -0.111,-0.222 -0.428,-0.222 -0.984,0 -1.11,-0.127 -1.11,-1.189 z" id="path4"/>
          <path style="fill:#005693;stroke:none" d="m 253.323,283.435 c 0,-0.19 -0.047,-0.253 -0.19,-0.253 h -0.08 c -0.126,0.016 -0.222,0.016 -0.428,0.016 -0.158,0 -0.349,0 -0.46,-0.016 -0.872,-0.064 -0.983,-0.064 -0.999,-0.064 -0.159,0 -0.238,0.064 -0.238,0.191 0,0.174 0.079,0.206 0.476,0.237 0.666,0.032 0.761,0.191 0.761,1.206 v 3.68 c 0,0.603 -0.047,0.793 -0.285,1.063 -0.46,0.524 -1.079,0.793 -1.777,0.793 -1.507,0 -2.078,-0.698 -2.078,-2.522 v -4.14 c 0,-0.349 -0.063,-0.46 -0.254,-0.444 l -0.619,0.031 c -0.031,0 -0.126,0 -0.285,-0.015 -0.143,-0.016 -0.301,-0.032 -0.476,-0.032 -0.174,-0.016 -0.317,-0.032 -0.381,-0.032 -0.063,-0.016 -0.111,-0.016 -0.142,-0.016 -0.159,0 -0.238,0.064 -0.238,0.191 0,0.174 0.079,0.206 0.476,0.237 0.65,0.032 0.761,0.191 0.761,1.206 v 3.014 c 0,1.396 0.143,1.904 0.714,2.49 0.46,0.492 1.079,0.746 1.792,0.746 0.825,0 1.491,-0.301 2.412,-1.095 0.095,-0.079 0.142,-0.111 0.206,-0.111 0.095,0 0.127,0.064 0.127,0.254 v 0.793 c 0,0.207 0,0.207 0.079,0.207 0.016,0 0.063,-0.016 0.095,-0.048 0.508,-0.349 0.968,-0.571 1.793,-0.793 0.285,-0.095 0.364,-0.127 0.364,-0.222 0,-0.095 -0.063,-0.143 -0.222,-0.143 h -0.222 c -0.587,0 -0.682,-0.127 -0.682,-0.92 z" id="path5"/>
          <path style="fill:#005693;stroke:none" d="m 263.751,284.276 c 0.174,0 0.237,-0.047 0.237,-0.158 0,-0.445 -0.063,-0.524 -0.396,-0.524 h -1.253 c -0.286,0 -0.429,-0.032 -0.619,-0.127 -0.809,-0.396 -1.158,-0.492 -1.919,-0.492 -1.824,0 -3.236,1.19 -3.236,2.729 0,0.936 0.587,1.776 1.665,2.379 0.127,0.064 0.175,0.127 0.175,0.175 0,0.063 -0.048,0.111 -0.191,0.158 -0.015,0.016 -0.095,0.048 -0.19,0.096 -0.127,0.063 -0.317,0.142 -0.539,0.222 -0.254,0.095 -0.444,0.174 -0.54,0.206 -0.126,0.047 -0.222,0.095 -0.269,0.111 -0.127,0.032 -0.159,0.079 -0.159,0.174 0,0.111 0.302,0.445 0.746,0.825 0.491,0.429 0.539,0.476 0.539,0.587 0,0.095 -0.063,0.159 -0.285,0.286 -0.651,0.38 -0.429,0.254 -0.667,0.38 l -0.19,0.111 -0.175,0.112 c -0.38,0.222 -0.666,0.682 -0.666,1.094 0,1.079 1.444,1.872 3.395,1.872 2.601,0 4.632,-1.301 4.632,-2.951 0,-1.205 -1.158,-1.919 -3.125,-1.919 -0.302,0 -0.825,0.016 -1.444,0.032 -0.158,0.016 -0.254,0.016 -0.428,0.016 -0.523,0 -0.999,-0.254 -0.999,-0.556 0,-0.174 0.095,-0.253 0.523,-0.444 0.476,-0.206 0.619,-0.222 1.301,-0.269 2.046,-0.096 3.283,-1.095 3.283,-2.65 0,-0.428 -0.063,-0.713 -0.222,-1.047 -0.111,-0.237 -0.111,-0.237 -0.111,-0.301 0,-0.095 0.064,-0.127 0.238,-0.127 z m -3.919,-0.983 c 1.031,0 1.856,1.062 1.856,2.411 0,1.38 -0.809,2.379 -1.935,2.379 -1.126,0 -1.919,-0.999 -1.919,-2.427 0,-1.364 0.84,-2.363 1.998,-2.363 z m -0.999,7.455 c 0.286,0 0.508,-0.016 0.888,-0.031 0.349,-0.016 0.651,-0.032 0.873,-0.032 1.332,0 2.173,0.571 2.173,1.507 0,1.094 -1.364,1.951 -3.157,1.951 -1.491,0 -2.554,-0.73 -2.554,-1.745 0,-0.587 0.429,-1.11 1.396,-1.666 z" id="path6"/>
          <path style="fill:#005693;stroke:none" d="m 269.783,282.975 c -2.412,0 -4.204,1.65 -4.204,3.887 0,2.252 1.856,4.029 4.204,4.029 2.332,0 4.219,-1.777 4.219,-3.966 0,-2.3 -1.761,-3.95 -4.219,-3.95 z m 0.015,0.318 c 1.666,0 2.935,1.586 2.935,3.68 0,1.967 -1.301,3.601 -2.871,3.601 -1.65,0 -3.014,-1.729 -3.014,-3.791 0,-1.999 1.253,-3.49 2.95,-3.49 z" id="path7"/>
          <path style="fill:#005693;stroke:none" d="m 283.492,285.91 c 0,-1.253 -0.159,-1.777 -0.682,-2.3 -0.476,-0.476 -1.19,-0.746 -1.92,-0.746 -0.761,0 -1.554,0.413 -2.427,1.269 -0.063,0.064 -0.142,0.111 -0.19,0.111 -0.079,0 -0.095,-0.031 -0.095,-0.237 v -1.127 c 0,-0.063 -0.048,-0.127 -0.111,-0.127 -0.064,0 -0.095,0.032 -0.27,0.27 -0.238,0.333 -0.793,0.682 -1.412,0.904 -0.269,0.095 -0.333,0.127 -0.333,0.222 0,0.095 0.048,0.143 0.175,0.143 0.809,0.063 0.809,0.063 0.809,1.031 v 3.791 c 0,1.016 -0.111,1.174 -0.762,1.206 -0.396,0.032 -0.476,0.063 -0.476,0.238 0,0.127 0.08,0.19 0.238,0.19 0.032,0 0.08,0 0.143,-0.016 0.032,0 0.143,0 0.54,-0.031 0.618,-0.048 0.65,-0.048 0.935,-0.048 0.175,0 0.318,0 0.698,0.032 0.603,0.047 0.667,0.047 0.698,0.047 0.064,0.016 0.111,0.016 0.143,0.016 0.159,0 0.238,-0.063 0.238,-0.19 0,-0.175 -0.079,-0.206 -0.476,-0.238 -0.65,-0.032 -0.761,-0.19 -0.761,-1.206 v -3.458 c 0,-0.745 0.111,-1.015 0.571,-1.412 0.476,-0.412 1.094,-0.666 1.665,-0.666 1.222,0 1.904,0.809 1.904,2.3 v 3.236 c 0,1.016 -0.111,1.174 -0.761,1.206 -0.397,0.032 -0.476,0.063 -0.476,0.238 0,0.127 0.079,0.19 0.238,0.19 0.031,0 0.079,0 0.142,-0.016 0.032,0 0.143,0 0.54,-0.031 0.571,-0.048 0.666,-0.048 0.856,-0.048 0.254,0 0.365,0 0.778,0.032 0.602,0.047 0.666,0.047 0.698,0.047 0.063,0.016 0.111,0.016 0.142,0.016 0.159,0 0.238,-0.063 0.238,-0.19 0,-0.175 -0.079,-0.206 -0.476,-0.238 -0.65,-0.032 -0.761,-0.19 -0.761,-1.206 z" id="path8"/>
          <path style="fill:#005693;stroke:none" d="m 292.044,284.482 c 0,-1.078 -0.523,-1.507 -1.888,-1.507 -1.745,0 -3.743,1.285 -3.743,2.412 0,0.142 0.063,0.206 0.19,0.206 0.587,0 0.968,-0.27 1.237,-0.841 0.444,-1.015 1.031,-1.443 1.952,-1.443 0.793,0 1.094,0.364 1.094,1.332 v 1.174 c 0,0.381 -0.079,0.507 -0.444,0.682 l -1.682,0.809 c -1.649,0.793 -2.331,1.475 -2.331,2.332 0,0.777 0.697,1.364 1.602,1.364 0.793,0 1.808,-0.492 2.522,-1.221 0.111,-0.096 0.143,-0.127 0.19,-0.127 0.08,0 0.143,0.063 0.191,0.222 0.253,0.698 0.571,1.015 1.031,1.015 0.285,0 0.698,-0.159 1.062,-0.444 0.318,-0.238 0.492,-0.444 0.508,-0.587 0,-0.064 -0.063,-0.143 -0.127,-0.143 -0.032,0 -0.079,0.032 -0.127,0.079 -0.317,0.286 -0.412,0.349 -0.634,0.349 -0.397,0 -0.603,-0.428 -0.603,-1.189 z m -1.523,2.301 c 0.222,-0.127 0.206,-0.112 0.238,-0.112 0.095,0 0.127,0.08 0.127,0.286 v 1.459 c 0,0.984 -0.904,1.777 -2.03,1.777 -0.698,0 -1.174,-0.412 -1.174,-1.031 0,-0.603 0.412,-1.142 1.142,-1.523 z" id="path9"/>
          <path style="fill:#005693;stroke:none" d="m 301.567,286.545 c 0,-0.492 -0.016,-0.429 0.269,-0.714 l 0.492,-0.492 c 0.19,-0.19 0.19,-0.19 0.254,-0.19 0.079,0 0.127,0.047 0.285,0.238 l 2.903,3.68 c 0.333,0.428 0.46,0.65 0.46,0.809 0,0.301 -0.269,0.444 -0.793,0.444 -0.412,-0.016 -0.555,0.048 -0.555,0.206 0,0.143 0.127,0.238 0.333,0.238 0.032,0 0.111,0 0.175,-0.016 0.079,0 0.349,-0.016 0.713,-0.047 0.699,-0.032 1.222,-0.064 1.349,-0.064 0.381,0 0.999,0.016 1.475,0.048 0.079,0.016 0.175,0.016 0.222,0.016 0.238,0 0.381,-0.08 0.381,-0.222 0,-0.111 -0.095,-0.191 -0.238,-0.191 -0.888,-0.047 -1.079,-0.19 -2.205,-1.618 l -3.299,-4.156 c -0.143,-0.19 -0.191,-0.27 -0.191,-0.349 0,-0.079 0.064,-0.174 0.27,-0.381 l 2.11,-2.125 c 0.872,-0.889 1.475,-1.158 2.506,-1.142 0.317,0 0.46,-0.08 0.46,-0.238 0,-0.143 -0.079,-0.206 -0.254,-0.206 -0.047,0 -0.127,0 -0.206,0.015 -0.064,0 -0.238,0 -0.46,0.016 -0.508,0.032 -0.904,0.048 -0.999,0.048 -0.175,0 -0.492,0 -1.016,-0.016 -0.317,-0.016 -0.555,-0.016 -0.666,-0.032 -0.095,-0.016 -0.19,-0.016 -0.254,-0.016 -0.174,0 -0.269,0.08 -0.269,0.222 0.016,0.175 0.111,0.207 0.507,0.207 0.333,0.016 0.571,0.142 0.556,0.333 -0.016,0.238 -0.191,0.476 -0.698,0.999 l -3.221,3.268 c -0.253,0.222 -0.238,0.222 -0.301,0.222 -0.079,0 -0.079,0 -0.095,-0.333 v -3.3 c 0,-1.062 0.127,-1.189 1.11,-1.189 0.317,0 0.428,-0.064 0.428,-0.222 0,-0.159 -0.095,-0.238 -0.285,-0.238 -0.048,0 -0.19,0.016 -0.333,0.016 -0.539,0.031 -0.349,0.015 -0.587,0.031 -0.635,0.048 -0.73,0.048 -0.984,0.048 -0.206,0 -0.428,0 -0.682,-0.016 l -0.174,-0.016 -0.159,-0.016 c -0.238,-0.016 -0.095,0 -0.46,-0.016 l -0.127,-0.015 h -0.111 c -0.127,-0.016 -0.222,-0.016 -0.222,-0.016 -0.174,0 -0.285,0.079 -0.285,0.238 0,0.158 0.111,0.222 0.428,0.222 0.983,0 1.11,0.127 1.11,1.189 v 7.377 c 0,1.062 -0.127,1.189 -1.11,1.189 -0.317,0 -0.428,0.064 -0.428,0.222 0,0.159 0.111,0.238 0.285,0.238 0.048,0 0.191,-0.015 0.333,-0.015 0.54,-0.032 0.349,-0.016 0.587,-0.032 0.651,-0.048 0.73,-0.048 1.031,-0.048 0.159,0 0.397,0.016 0.635,0.016 0.682,0.048 0.381,0.032 0.92,0.064 0,0 0.111,0 0.222,0.015 h 0.111 c 0.19,0 0.285,-0.079 0.285,-0.238 0,-0.158 -0.111,-0.222 -0.428,-0.222 -0.983,0 -1.11,-0.127 -1.11,-1.189 z" id="path10"/>
          <path style="fill:#005693;stroke:none" d="m 315.006,282.975 c -2.411,0 -4.204,1.65 -4.204,3.887 0,2.252 1.856,4.029 4.204,4.029 2.332,0 4.219,-1.777 4.219,-3.966 0,-2.3 -1.76,-3.95 -4.219,-3.95 z m 0.016,0.318 c 1.665,0 2.934,1.586 2.934,3.68 0,1.967 -1.301,3.601 -2.871,3.601 -1.65,0 -3.014,-1.729 -3.014,-3.791 0,-1.999 1.253,-3.49 2.951,-3.49 z" id="path11"/>
          <path style="fill:#005693;stroke:none" d="m 323.147,279.2 0.016,-0.301 c 0,-0.096 -0.047,-0.175 -0.111,-0.175 -0.048,0 -0.111,0.032 -0.174,0.079 -0.492,0.381 -1.174,0.667 -1.888,0.778 -0.127,0.016 -0.191,0.063 -0.191,0.143 0,0.126 0.159,0.206 0.365,0.174 0,0 0.032,0 0.08,-0.016 0.539,-0.111 0.745,0.127 0.745,0.873 v 3.331 c 0,0.317 -0.095,0.555 -0.285,0.73 l -0.873,0.793 c -0.142,0.127 -0.174,0.19 -0.174,0.301 0,0.111 0.095,0.222 0.206,0.222 0.079,0 0.143,-0.032 0.254,-0.127 l 0.492,-0.46 c 0.063,-0.063 0.158,-0.111 0.222,-0.111 0.126,0 0.158,0.064 0.158,0.397 v 3.283 c 0,1.016 -0.111,1.174 -0.761,1.206 -0.397,0.032 -0.476,0.063 -0.476,0.238 0,0.127 0.079,0.19 0.238,0.19 0.032,0 0.079,0 0.143,-0.016 0.031,0 0.142,0 0.539,-0.031 0.587,-0.048 0.666,-0.048 0.857,-0.048 0.253,0 0.364,0 0.777,0.032 0.587,0.047 0.666,0.047 0.698,0.047 0.063,0.016 0.111,0.016 0.143,0.016 0.158,0 0.238,-0.063 0.238,-0.19 0,-0.175 -0.08,-0.206 -0.476,-0.238 -0.651,-0.032 -0.762,-0.19 -0.762,-1.206 v -4.076 c 0,-0.365 0.064,-0.54 0.286,-0.73 l 0.888,-0.809 c 0.175,-0.159 0.175,-0.143 0.175,-0.254 0,-0.127 -0.096,-0.222 -0.207,-0.222 -0.079,0 -0.158,0.032 -0.285,0.143 l -0.444,0.412 c -0.111,0.095 -0.238,0.175 -0.27,0.175 -0.127,-0.016 -0.143,-0.064 -0.143,-0.476 z" id="path12"/>
          <path style="fill:#005693;stroke:none" d="m 327.956,279.2 0.016,-0.301 c 0,-0.096 -0.048,-0.175 -0.111,-0.175 -0.048,0 -0.111,0.032 -0.175,0.079 -0.491,0.381 -1.173,0.667 -1.887,0.778 -0.127,0.016 -0.191,0.063 -0.191,0.143 0,0.126 0.159,0.206 0.365,0.174 0,0 0.032,0 0.079,-0.016 0.54,-0.111 0.746,0.127 0.746,0.873 v 3.331 c 0,0.317 -0.095,0.555 -0.285,0.73 l -0.873,0.793 c -0.143,0.127 -0.174,0.19 -0.174,0.301 0,0.111 0.095,0.222 0.206,0.222 0.079,0 0.143,-0.032 0.254,-0.127 l 0.491,-0.46 c 0.064,-0.063 0.159,-0.111 0.222,-0.111 0.127,0 0.159,0.064 0.159,0.397 v 3.283 c 0,1.016 -0.111,1.174 -0.761,1.206 -0.397,0.032 -0.476,0.063 -0.476,0.238 0,0.127 0.079,0.19 0.238,0.19 0.031,0 0.079,0 0.142,-0.016 0.032,0 0.143,0 0.54,-0.031 0.587,-0.048 0.666,-0.048 0.856,-0.048 0.254,0 0.365,0 0.778,0.032 0.587,0.047 0.666,0.047 0.698,0.047 0.063,0.016 0.111,0.016 0.142,0.016 0.159,0 0.238,-0.063 0.238,-0.19 0,-0.175 -0.079,-0.206 -0.476,-0.238 -0.65,-0.032 -0.761,-0.19 -0.761,-1.206 v -4.076 c 0,-0.365 0.064,-0.54 0.286,-0.73 l 0.888,-0.809 c 0.174,-0.159 0.174,-0.143 0.174,-0.254 0,-0.127 -0.095,-0.222 -0.206,-0.222 -0.079,0 -0.158,0.032 -0.285,0.143 l -0.445,0.412 c -0.111,0.095 -0.238,0.175 -0.269,0.175 -0.127,-0.016 -0.143,-0.064 -0.143,-0.476 z" id="path13"/>
          <path style="fill:#005693;stroke:none" d="m 338.301,292.683 c -0.032,-0.031 -0.048,-0.047 -0.079,-0.047 -0.016,0 -0.064,0.032 -0.159,0.111 -0.349,0.285 -0.714,0.46 -0.984,0.46 -0.555,0 -0.951,-0.381 -0.951,-0.904 0,-0.476 0.317,-0.936 1.174,-1.666 0.571,-0.492 0.682,-0.618 0.698,-0.777 0,-0.064 -0.064,-0.143 -0.127,-0.143 -0.032,0 -0.08,0.032 -0.127,0.079 -0.318,0.302 -0.413,0.365 -0.635,0.365 -0.396,0 -0.602,-0.428 -0.602,-1.205 v -4.474 c 0,-1.078 -0.524,-1.507 -1.888,-1.507 -1.745,0 -3.744,1.285 -3.744,2.412 0,0.142 0.064,0.206 0.191,0.206 0.586,0 0.967,-0.27 1.237,-0.841 0.444,-1.015 1.031,-1.443 1.951,-1.443 0.793,0 1.094,0.364 1.094,1.332 v 1.174 c 0,0.381 -0.079,0.507 -0.444,0.682 l -1.681,0.809 c -1.65,0.793 -2.332,1.475 -2.332,2.332 0,0.777 0.698,1.364 1.602,1.364 0.793,0 1.808,-0.492 2.522,-1.221 0.111,-0.096 0.143,-0.127 0.191,-0.127 0.079,0 0.142,0.063 0.19,0.222 0.222,0.65 0.571,1.015 0.936,1.015 0.079,0 0.159,0 0.254,-0.032 -0.904,0.508 -1.238,0.936 -1.238,1.555 0,0.73 0.603,1.285 1.396,1.285 0.429,0 0.921,-0.206 1.349,-0.571 0.095,-0.064 0.158,-0.127 0.158,-0.127 0.096,-0.064 0.143,-0.143 0.143,-0.191 0,-0.015 0,-0.031 -0.016,-0.047 z m -3.315,-5.9 c 0.222,-0.127 0.206,-0.112 0.238,-0.112 0.095,0 0.126,0.08 0.126,0.286 v 1.459 c 0,0.984 -0.904,1.777 -2.03,1.777 -0.698,0 -1.174,-0.412 -1.174,-1.031 0,-0.603 0.413,-1.142 1.142,-1.523 z" id="path14"/>
          <path style="fill:#005693;stroke:none" d="m 341.254,284.244 c 0,-0.523 0,-0.539 0.412,-0.539 h 1.38 c 0.286,0 0.318,-0.032 0.318,-0.254 0,-0.269 0,-0.269 -0.318,-0.269 h -1.38 c -0.396,0 -0.412,-0.032 -0.412,-0.445 v -1.015 c 0,-0.19 -0.048,-0.285 -0.143,-0.285 -0.063,0 -0.111,0.047 -0.174,0.158 -0.349,0.73 -0.714,1.127 -1.603,1.729 -0.142,0.096 -0.206,0.159 -0.206,0.238 0,0.111 0.048,0.143 0.27,0.143 h 0.428 c 0.238,0 0.27,0.032 0.27,0.381 v 4.489 c 0,1.237 0.079,1.602 0.428,1.983 0.254,0.285 0.698,0.46 1.142,0.46 0.524,0 1.015,-0.19 1.476,-0.539 0.285,-0.238 0.46,-0.46 0.46,-0.603 0,-0.064 -0.064,-0.127 -0.111,-0.127 -0.032,0 -0.08,0.032 -0.127,0.063 -0.476,0.413 -0.778,0.556 -1.111,0.556 -0.682,0 -0.999,-0.556 -0.999,-1.793 z" id="path15"/>
          <path style="fill:#005693;stroke:none" d="m 350.567,284.482 c 0,-1.078 -0.523,-1.507 -1.887,-1.507 -1.745,0 -3.744,1.285 -3.744,2.412 0,0.142 0.063,0.206 0.19,0.206 0.587,0 0.968,-0.27 1.237,-0.841 0.445,-1.015 1.032,-1.443 1.952,-1.443 0.793,0 1.094,0.364 1.094,1.332 v 1.174 c 0,0.381 -0.079,0.507 -0.444,0.682 l -1.681,0.809 c -1.65,0.793 -2.332,1.475 -2.332,2.332 0,0.777 0.698,1.364 1.602,1.364 0.793,0 1.808,-0.492 2.522,-1.221 0.111,-0.096 0.143,-0.127 0.19,-0.127 0.08,0 0.143,0.063 0.191,0.222 0.254,0.698 0.571,1.015 1.031,1.015 0.285,0 0.698,-0.159 1.063,-0.444 0.317,-0.238 0.491,-0.444 0.507,-0.587 0,-0.064 -0.063,-0.143 -0.127,-0.143 -0.031,0 -0.079,0.032 -0.126,0.079 -0.318,0.286 -0.413,0.349 -0.635,0.349 -0.397,0 -0.603,-0.428 -0.603,-1.189 z m -1.523,2.301 c 0.222,-0.127 0.207,-0.112 0.238,-0.112 0.096,0 0.127,0.08 0.127,0.286 v 1.459 c 0,0.984 -0.904,1.777 -2.03,1.777 -0.698,0 -1.174,-0.412 -1.174,-1.031 0,-0.603 0.412,-1.142 1.142,-1.523 z" id="path16"/>
          <path style="fill:#005693;stroke:none" d="m 354.868,279.85 c -0.428,0 -0.745,0.365 -0.745,0.857 0,0.476 0.285,0.809 0.698,0.809 0.444,0 0.777,-0.365 0.777,-0.841 0,-0.491 -0.301,-0.825 -0.73,-0.825 z m 0.556,3.221 c 0,-0.286 -0.016,-0.318 -0.127,-0.318 -0.08,0 -0.127,0.048 -0.254,0.222 -0.286,0.365 -0.936,0.778 -1.682,1.079 -0.127,0.048 -0.158,0.079 -0.158,0.175 0,0.095 0.063,0.142 0.19,0.142 h 0.286 c 0.507,0 0.587,0.143 0.587,0.984 v 6.726 c 0,0.92 -0.318,1.507 -1.269,2.332 -0.143,0.126 -0.191,0.19 -0.191,0.269 0,0.08 0.048,0.127 0.143,0.127 0.127,0 0.476,-0.238 0.983,-0.666 1.174,-0.984 1.492,-1.65 1.492,-3.093 z" id="path17"/>
          <path style="fill:#005693;stroke:none" d="m 363.768,284.482 c 0,-1.078 -0.523,-1.507 -1.888,-1.507 -1.745,0 -3.743,1.285 -3.743,2.412 0,0.142 0.063,0.206 0.19,0.206 0.587,0 0.968,-0.27 1.237,-0.841 0.445,-1.015 1.031,-1.443 1.952,-1.443 0.793,0 1.094,0.364 1.094,1.332 v 1.174 c 0,0.381 -0.079,0.507 -0.444,0.682 l -1.682,0.809 c -1.649,0.793 -2.331,1.475 -2.331,2.332 0,0.777 0.698,1.364 1.602,1.364 0.793,0 1.808,-0.492 2.522,-1.221 0.111,-0.096 0.143,-0.127 0.19,-0.127 0.08,0 0.143,0.063 0.191,0.222 0.253,0.698 0.571,1.015 1.031,1.015 0.285,0 0.698,-0.159 1.063,-0.444 0.317,-0.238 0.491,-0.444 0.507,-0.587 0,-0.064 -0.063,-0.143 -0.127,-0.143 -0.031,0 -0.079,0.032 -0.127,0.079 -0.317,0.286 -0.412,0.349 -0.634,0.349 -0.397,0 -0.603,-0.428 -0.603,-1.189 z m -1.523,2.301 c 0.222,-0.127 0.207,-0.112 0.238,-0.112 0.095,0 0.127,0.08 0.127,0.286 v 1.459 c 0,0.984 -0.904,1.777 -2.03,1.777 -0.698,0 -1.174,-0.412 -1.174,-1.031 0,-0.603 0.412,-1.142 1.142,-1.523 z" id="path18"/>
          <path style="fill:#005693;stroke:none" d="m 376.416,285.783 2.236,5.045 c 0.032,0.079 0.08,0.126 0.127,0.126 0.064,0 0.127,-0.047 0.159,-0.126 l 2.475,-5.965 c 0.396,-0.968 0.65,-1.237 1.205,-1.285 0.444,-0.047 0.492,-0.079 0.492,-0.222 0,-0.127 -0.063,-0.174 -0.238,-0.174 -0.032,0 -0.143,0 -0.238,0.016 -0.285,0 -0.555,0.015 -0.698,0.015 -0.508,0 -1.047,-0.015 -1.316,-0.047 -0.08,-0.016 -0.143,-0.016 -0.207,-0.016 -0.174,0 -0.301,0.095 -0.301,0.206 0,0.127 0.111,0.19 0.317,0.19 h 0.079 c 0.492,0 0.682,0.143 0.682,0.524 0,0.206 -0.063,0.444 -0.222,0.793 l -1.776,4.251 -2.094,-4.647 c -0.111,-0.238 -0.175,-0.46 -0.175,-0.587 0,-0.191 0.238,-0.318 0.603,-0.334 0.286,0 0.397,-0.063 0.397,-0.19 0,-0.143 -0.079,-0.206 -0.286,-0.206 -0.016,0 -0.095,0 -0.174,0.016 -0.143,0 -0.191,0 -1,0.016 h -0.206 -4.949 c -0.841,-0.016 -0.508,-0.016 -1.015,-0.016 h -0.349 c -0.175,0 -0.254,0.063 -0.254,0.174 0,0.143 0.079,0.175 0.412,0.191 0.445,0 0.698,0.206 0.968,0.84 l 2.839,6.457 c 0.032,0.063 0.096,0.111 0.143,0.111 0.064,0 0.143,-0.048 0.175,-0.111 z m -1.92,3.395 -1.935,-4.315 c -0.159,-0.333 -0.285,-0.745 -0.285,-0.904 0,-0.286 0.142,-0.365 0.65,-0.365 h 1.634 c 0.666,0 0.872,0.127 1.11,0.666 l 0.286,0.603 c 0.143,0.333 0.143,0.349 0.143,0.46 0,0.159 -0.048,0.302 -0.191,0.635 z" id="path19"/>
          <path style="fill:#005693;stroke:none" d="m 390.953,286.545 c 0,-0.492 -0.016,-0.429 0.27,-0.714 l 0.491,-0.492 c 0.191,-0.19 0.191,-0.19 0.254,-0.19 0.079,0 0.127,0.047 0.286,0.238 l 2.903,3.68 c 0.333,0.428 0.46,0.65 0.46,0.809 0,0.301 -0.27,0.444 -0.794,0.444 -0.412,-0.016 -0.555,0.048 -0.555,0.206 0,0.143 0.127,0.238 0.333,0.238 0.032,0 0.111,0 0.175,-0.016 0.079,0 0.349,-0.016 0.714,-0.047 0.698,-0.032 1.221,-0.064 1.348,-0.064 0.381,0 0.999,0.016 1.475,0.048 0.08,0.016 0.175,0.016 0.222,0.016 0.238,0 0.381,-0.08 0.381,-0.222 0,-0.111 -0.095,-0.191 -0.238,-0.191 -0.888,-0.047 -1.079,-0.19 -2.205,-1.618 l -3.299,-4.156 c -0.143,-0.19 -0.191,-0.27 -0.191,-0.349 0,-0.079 0.064,-0.174 0.27,-0.381 l 2.11,-2.125 c 0.872,-0.889 1.475,-1.158 2.506,-1.142 0.317,0 0.46,-0.08 0.46,-0.238 0,-0.143 -0.079,-0.206 -0.254,-0.206 -0.047,0 -0.127,0 -0.206,0.015 -0.063,0 -0.238,0 -0.46,0.016 -0.508,0.032 -0.904,0.048 -0.999,0.048 -0.175,0 -0.492,0 -1.015,-0.016 -0.318,-0.016 -0.556,-0.016 -0.667,-0.032 -0.095,-0.016 -0.19,-0.016 -0.254,-0.016 -0.174,0 -0.269,0.08 -0.269,0.222 0.016,0.175 0.111,0.207 0.507,0.207 0.334,0.016 0.572,0.142 0.556,0.333 -0.016,0.238 -0.191,0.476 -0.698,0.999 l -3.221,3.268 c -0.253,0.222 -0.237,0.222 -0.301,0.222 -0.079,0 -0.079,0 -0.095,-0.333 v -3.3 c 0,-1.062 0.127,-1.189 1.11,-1.189 0.318,0 0.429,-0.064 0.429,-0.222 0,-0.159 -0.096,-0.238 -0.286,-0.238 -0.047,0 -0.19,0.016 -0.333,0.016 -0.539,0.031 -0.349,0.015 -0.587,0.031 -0.635,0.048 -0.73,0.048 -0.984,0.048 -0.206,0 -0.428,0 -0.682,-0.016 l -0.174,-0.016 -0.159,-0.016 c -0.238,-0.016 -0.095,0 -0.46,-0.016 l -0.127,-0.015 h -0.111 c -0.127,-0.016 -0.222,-0.016 -0.222,-0.016 -0.174,0 -0.285,0.079 -0.285,0.238 0,0.158 0.111,0.222 0.428,0.222 0.983,0 1.11,0.127 1.11,1.189 v 7.377 c 0,1.062 -0.127,1.189 -1.11,1.189 -0.317,0 -0.428,0.064 -0.428,0.222 0,0.159 0.111,0.238 0.285,0.238 0.048,0 0.191,-0.015 0.333,-0.015 0.54,-0.032 0.349,-0.016 0.587,-0.032 0.651,-0.048 0.73,-0.048 1.031,-0.048 0.159,0 0.397,0.016 0.635,0.016 0.682,0.048 0.381,0.032 0.92,0.064 0,0 0.111,0 0.222,0.015 h 0.111 c 0.19,0 0.286,-0.079 0.286,-0.238 0,-0.158 -0.111,-0.222 -0.429,-0.222 -0.983,0 -1.11,-0.127 -1.11,-1.189 z" id="path20"/>
          <path style="fill:#005693;stroke:none" d="m 402.504,282.975 c 0,-0.174 -0.016,-0.222 -0.111,-0.222 -0.063,0 -0.127,0.064 -0.222,0.207 -0.349,0.539 -0.777,0.856 -1.396,1.062 -0.476,0.143 -0.476,0.143 -0.476,0.286 0,0.063 0.064,0.111 0.159,0.111 h 0.317 c 0.476,0 0.571,0.159 0.571,0.904 v 3.791 c 0,1.016 -0.111,1.174 -0.761,1.206 -0.397,0.032 -0.476,0.063 -0.476,0.238 0,0.127 0.079,0.19 0.238,0.19 0.032,0 0.079,0 0.143,-0.016 0.031,0 0.142,0 0.539,-0.031 0.587,-0.048 0.666,-0.048 0.872,-0.048 0.238,0 0.349,0 0.762,0.032 0.603,0.047 0.666,0.047 0.698,0.047 0.063,0.016 0.111,0.016 0.143,0.016 0.158,0 0.238,-0.063 0.238,-0.19 0,-0.175 -0.08,-0.206 -0.476,-0.238 -0.651,-0.032 -0.762,-0.19 -0.762,-1.206 v -3.188 c 0,-0.714 0.08,-1.031 0.349,-1.459 0.302,-0.476 0.603,-0.714 0.92,-0.714 0.159,0 0.27,0.063 0.429,0.254 0.253,0.301 0.412,0.396 0.65,0.396 0.428,0 0.714,-0.285 0.714,-0.682 0,-0.508 -0.413,-0.857 -1.015,-0.857 -0.508,0 -1.254,0.492 -1.682,1.111 -0.206,0.301 -0.19,0.301 -0.285,0.301 -0.048,0 -0.08,-0.047 -0.08,-0.174 z" id="path21"/>
          <path style="fill:#005693;stroke:none" d="m 412.756,284.482 c 0,-1.078 -0.524,-1.507 -1.888,-1.507 -1.745,0 -3.744,1.285 -3.744,2.412 0,0.142 0.064,0.206 0.191,0.206 0.587,0 0.967,-0.27 1.237,-0.841 0.444,-1.015 1.031,-1.443 1.951,-1.443 0.793,0 1.095,0.364 1.095,1.332 v 1.174 c 0,0.381 -0.08,0.507 -0.444,0.682 l -1.682,0.809 c -1.65,0.793 -2.332,1.475 -2.332,2.332 0,0.777 0.698,1.364 1.602,1.364 0.794,0 1.809,-0.492 2.523,-1.221 0.111,-0.096 0.142,-0.127 0.19,-0.127 0.079,0 0.143,0.063 0.19,0.222 0.254,0.698 0.571,1.015 1.031,1.015 0.286,0 0.698,-0.159 1.063,-0.444 0.317,-0.238 0.492,-0.444 0.508,-0.587 0,-0.064 -0.064,-0.143 -0.127,-0.143 -0.032,0 -0.079,0.032 -0.127,0.079 -0.317,0.286 -0.412,0.349 -0.635,0.349 -0.396,0 -0.602,-0.428 -0.602,-1.189 z m -1.523,2.301 c 0.222,-0.127 0.206,-0.112 0.238,-0.112 0.095,0 0.127,0.08 0.127,0.286 v 1.459 c 0,0.984 -0.904,1.777 -2.031,1.777 -0.698,0 -1.174,-0.412 -1.174,-1.031 0,-0.603 0.413,-1.142 1.143,-1.523 z" id="path22"/>
          <path style="fill:#005693;stroke:none" d="m 417.565,279.089 c 0,-0.333 -0.016,-0.365 -0.127,-0.365 -0.032,0 -0.08,0.016 -0.127,0.048 -0.587,0.38 -1.095,0.603 -1.634,0.729 -0.317,0.064 -0.381,0.096 -0.381,0.223 0,0.126 0.079,0.19 0.238,0.174 l 0.206,-0.016 c 0.524,-0.032 0.666,0.206 0.666,1.142 v 8.09 c 0,1.016 -0.11,1.174 -0.761,1.206 -0.396,0.032 -0.476,0.063 -0.476,0.238 0,0.127 0.08,0.19 0.238,0.19 0.032,0 0.08,0 0.143,-0.016 0.032,0 0.143,0 0.539,-0.031 0.587,-0.048 0.666,-0.048 0.889,-0.048 0.222,0 0.349,0 0.745,0.032 0.603,0.047 0.666,0.047 0.698,0.047 0.064,0.016 0.111,0.016 0.143,0.016 0.159,0 0.238,-0.063 0.238,-0.19 0,-0.175 -0.079,-0.206 -0.476,-0.238 -0.65,-0.032 -0.761,-0.19 -0.761,-1.206 v -1.396 c 0,-0.317 0.047,-0.412 0.301,-0.602 l 0.349,-0.27 c 0.111,-0.079 0.19,-0.127 0.254,-0.127 0.111,0 0.19,0.079 0.38,0.317 l 1.825,2.396 c 0.19,0.253 0.285,0.428 0.285,0.555 0,0.254 -0.158,0.349 -0.666,0.381 -0.206,0 -0.302,0.079 -0.302,0.206 0,0.127 0.096,0.19 0.286,0.19 0.079,0 0.301,-0.016 0.492,-0.032 0.396,-0.031 0.745,-0.047 1.11,-0.047 0.428,0 1.015,0.032 1.475,0.079 0.048,0.016 0.112,0.016 0.143,0.016 0.175,0 0.286,-0.079 0.286,-0.222 0,-0.143 -0.048,-0.159 -0.349,-0.19 -0.429,-0.048 -0.651,-0.191 -1.111,-0.778 l -2.601,-3.299 c -0.222,-0.27 -0.206,-0.254 -0.206,-0.333 0,-0.08 0.063,-0.159 0.269,-0.318 l 1.603,-1.285 c 0.824,-0.634 1.158,-0.793 1.792,-0.824 0.238,-0.016 0.333,-0.064 0.333,-0.207 0,-0.142 -0.079,-0.19 -0.285,-0.19 -0.032,0 -0.112,0 -0.191,0.016 -0.507,0.032 -1.126,0.063 -1.285,0.063 l -1.57,-0.063 c -0.222,0 -0.317,0.063 -0.317,0.19 0,0.191 0.063,0.222 0.761,0.238 0.27,0.016 0.428,0.111 0.428,0.27 0,0.159 -0.206,0.412 -0.523,0.666 l -2.586,2.062 c -0.238,0.175 -0.222,0.175 -0.285,0.175 -0.095,0 -0.095,0 -0.095,-0.46 z" id="path23"/>
          <path style="fill:#005693;stroke:none" d="m 429.259,282.975 c -2.412,0 -4.204,1.65 -4.204,3.887 0,2.252 1.856,4.029 4.204,4.029 2.331,0 4.219,-1.777 4.219,-3.966 0,-2.3 -1.761,-3.95 -4.219,-3.95 z m 0.015,0.318 c 1.666,0 2.935,1.586 2.935,3.68 0,1.967 -1.301,3.601 -2.871,3.601 -1.65,0 -3.014,-1.729 -3.014,-3.791 0,-1.999 1.253,-3.49 2.95,-3.49 z" id="path24"/>
          <path style="fill:#005693;stroke:none" d="m 441.271,285.783 2.236,5.045 c 0.032,0.079 0.079,0.126 0.127,0.126 0.064,0 0.127,-0.047 0.159,-0.126 l 2.474,-5.965 c 0.397,-0.968 0.651,-1.237 1.206,-1.285 0.444,-0.047 0.492,-0.079 0.492,-0.222 0,-0.127 -0.064,-0.174 -0.238,-0.174 -0.032,0 -0.143,0 -0.238,0.016 -0.286,0 -0.555,0.015 -0.698,0.015 -0.508,0 -1.047,-0.015 -1.317,-0.047 -0.079,-0.016 -0.143,-0.016 -0.206,-0.016 -0.174,0 -0.301,0.095 -0.301,0.206 0,0.127 0.111,0.19 0.317,0.19 h 0.079 c 0.492,0 0.682,0.143 0.682,0.524 0,0.206 -0.063,0.444 -0.222,0.793 l -1.776,4.251 -2.094,-4.647 c -0.111,-0.238 -0.175,-0.46 -0.175,-0.587 0,-0.191 0.238,-0.318 0.603,-0.334 0.285,0 0.396,-0.063 0.396,-0.19 0,-0.143 -0.079,-0.206 -0.285,-0.206 -0.016,0 -0.095,0 -0.174,0.016 -0.143,0 -0.191,0 -1,0.016 h -0.206 -4.949 c -0.841,-0.016 -0.508,-0.016 -1.016,-0.016 h -0.349 c -0.174,0 -0.253,0.063 -0.253,0.174 0,0.143 0.079,0.175 0.412,0.191 0.444,0 0.698,0.206 0.968,0.84 l 2.839,6.457 c 0.032,0.063 0.095,0.111 0.143,0.111 0.063,0 0.143,-0.048 0.174,-0.111 z m -1.92,3.395 -1.935,-4.315 c -0.159,-0.333 -0.286,-0.745 -0.286,-0.904 0,-0.286 0.143,-0.365 0.651,-0.365 h 1.634 c 0.666,0 0.872,0.127 1.11,0.666 l 0.285,0.603 c 0.143,0.333 0.143,0.349 0.143,0.46 0,0.159 -0.047,0.302 -0.19,0.635 z" id="path25"/>
          <path style="fill:#005693;stroke:none" d="m 450.824,279.85 c -0.428,0 -0.761,0.365 -0.761,0.857 0,0.476 0.301,0.809 0.729,0.809 0.444,0 0.746,-0.349 0.746,-0.857 0,-0.444 -0.317,-0.809 -0.714,-0.809 z m 0.539,3.332 0.016,-0.238 c 0,-0.127 -0.031,-0.191 -0.127,-0.191 -0.111,0 -0.174,0.048 -0.317,0.222 -0.27,0.318 -1.015,0.794 -1.428,0.92 -0.317,0.096 -0.396,0.143 -0.396,0.27 0,0.095 0.079,0.175 0.206,0.175 h 0.222 c 0.555,0 0.666,0.19 0.666,1.047 v 3.727 c 0,1 -0.111,1.174 -0.761,1.206 -0.397,0.032 -0.476,0.063 -0.476,0.238 0,0.127 0.079,0.19 0.238,0.19 0.032,0 0.079,0 0.143,-0.016 0.031,0 0.142,0 0.539,-0.031 0.587,-0.048 0.666,-0.048 0.888,-0.048 0.223,0 0.349,0 0.746,0.032 0.587,0.047 0.666,0.047 0.698,0.047 0.063,0.016 0.111,0.016 0.143,0.016 0.158,0 0.238,-0.063 0.238,-0.19 0,-0.175 -0.08,-0.206 -0.476,-0.238 -0.651,-0.032 -0.762,-0.206 -0.762,-1.206 z" id="path26"/>
          <path style="fill:#005693;stroke:none" d="m 461.054,286.069 c 0.333,0 0.381,-0.032 0.381,-0.302 0,-1.602 -1.301,-2.792 -3.046,-2.792 -0.936,0 -1.777,0.254 -2.538,0.762 -1.19,0.777 -1.729,1.808 -1.729,3.236 0,2.332 1.681,4.029 3.982,4.029 0.983,0 1.871,-0.349 2.617,-0.999 0.413,-0.381 0.619,-0.651 0.619,-0.778 0,-0.063 -0.064,-0.127 -0.111,-0.127 -0.048,0 -0.111,0.032 -0.191,0.096 -0.825,0.777 -1.427,1.031 -2.332,1.031 -1.935,0 -3.315,-1.507 -3.315,-3.617 0,-0.444 0.079,-0.539 0.476,-0.539 z m -5.155,-0.413 c -0.254,0 -0.365,-0.063 -0.365,-0.222 0,-0.19 0.174,-0.634 0.381,-0.936 0.507,-0.745 1.364,-1.205 2.268,-1.205 1.047,0 1.888,0.682 1.888,1.538 0,0.333 -0.175,0.556 -0.524,0.667 -0.27,0.079 -1.205,0.158 -1.856,0.158 z" id="path27"/>
        </g>
        <g id="g46">
          <path style="fill:#005693;stroke:none" d="m 218.154,258.92 c 0,-1.888 0.178,-2.177 1.355,-2.243 0.577,-0.023 0.755,-0.134 0.755,-0.4 0,-0.178 -0.156,-0.311 -0.378,-0.311 -0.2,0 -0.4,0.022 -0.666,0.044 -0.444,0.045 -0.977,0.067 -1.421,0.067 -0.556,0 -1.089,-0.022 -1.843,-0.044 -0.156,-0.023 -0.356,-0.023 -0.423,-0.023 -0.355,0 -0.532,0.111 -0.532,0.333 0,0.267 0.155,0.334 0.799,0.378 1.288,0.089 1.466,0.378 1.466,2.354 v 7.351 c 0,2.665 -1.333,3.953 -4.042,3.953 -1.199,0 -2.288,-0.333 -2.976,-0.911 -0.777,-0.666 -1.088,-1.665 -1.088,-3.62 v -7.461 c 0,-1.333 0.2,-1.622 1.199,-1.688 0.666,-0.045 0.844,-0.133 0.844,-0.4 0,-0.244 -0.133,-0.333 -0.489,-0.333 -0.111,0 -0.422,0.022 -1.021,0.044 -0.8,0.023 -1.266,0.045 -1.821,0.045 -0.511,0 -1.022,-0.022 -1.777,-0.045 -0.622,-0.022 -0.91,-0.044 -1.021,-0.044 -0.356,0 -0.489,0.089 -0.489,0.333 0,0.267 0.178,0.355 0.844,0.4 0.977,0.066 1.177,0.355 1.177,1.688 v 7.795 c 0,1.865 0.466,2.953 1.599,3.731 1.088,0.777 2.598,1.154 4.486,1.154 1.577,0 2.998,-0.355 3.909,-0.977 1.11,-0.777 1.554,-1.843 1.554,-3.753 z" id="path28"/>
          <path style="fill:#005693;stroke:none" d="m 236.095,267.026 -8.084,-10.349 c -0.489,-0.667 -0.489,-0.667 -0.889,-0.667 l -1.532,0.045 -2.021,-0.067 c -0.577,0 -0.755,0.067 -0.755,0.333 0,0.267 0.2,0.356 0.888,0.356 1.066,0.022 1.222,0.288 1.222,2.065 v 7.906 c 0,3.265 -0.044,3.42 -1.155,3.553 -1.022,0.134 -1.088,0.178 -1.088,0.444 0,0.2 0.155,0.311 0.422,0.311 0.133,0 0.533,-0.022 0.888,-0.066 0.555,-0.067 1.111,-0.089 1.688,-0.089 0.444,0 0.91,0.022 1.399,0.044 0.289,0.023 0.622,0.045 0.711,0.045 0.355,0 0.533,-0.111 0.533,-0.333 0,-0.2 -0.156,-0.334 -0.422,-0.334 -1.955,-0.155 -1.999,-0.244 -2.043,-3.842 l -0.089,-8.239 10.104,12.659 c 0.334,0.4 0.556,0.577 0.756,0.577 0.311,0 0.421,-0.2 0.421,-0.688 l -0.066,-12.437 c 0,-1.177 0.178,-1.377 1.221,-1.465 0.733,-0.067 0.933,-0.156 0.933,-0.445 0,-0.222 -0.155,-0.333 -0.444,-0.333 -0.111,0 -0.4,0.023 -0.666,0.045 -0.422,0.022 -0.978,0.044 -1.577,0.044 -0.666,0 -1.221,-0.022 -1.688,-0.066 -0.222,0 -0.466,-0.023 -0.533,-0.023 -0.355,0 -0.555,0.111 -0.555,0.311 -0.022,0.289 0.2,0.378 1.066,0.422 1.088,0.045 1.221,0.378 1.266,2.932 z" id="path29"/>
          <path style="fill:#005693;stroke:none" d="m 246.439,258.387 c 0,-1.333 0.2,-1.622 1.2,-1.688 0.666,-0.045 0.844,-0.133 0.844,-0.4 0,-0.244 -0.134,-0.333 -0.489,-0.333 h -0.133 c -0.111,0 -0.178,0 -0.267,0.022 -1.488,0.067 -1.71,0.067 -2.332,0.067 -0.666,0 -1.11,-0.022 -1.887,-0.045 -0.866,-0.044 -0.711,-0.044 -0.889,-0.044 h -0.133 c -0.355,0 -0.488,0.089 -0.488,0.333 0,0.267 0.177,0.355 0.843,0.4 0.978,0.066 1.177,0.355 1.177,1.688 v 10.104 c 0,1.333 -0.199,1.621 -1.177,1.688 -0.666,0.044 -0.843,0.133 -0.843,0.4 0,0.244 0.133,0.333 0.488,0.333 h 0.133 c 0.111,0 0.178,0 0.267,-0.022 1.355,-0.045 1.754,-0.067 2.376,-0.067 0.511,0 1.222,0.022 1.843,0.045 0.867,0.044 0.711,0.044 0.889,0.044 h 0.133 c 0.355,0 0.489,-0.089 0.489,-0.333 0,-0.267 -0.178,-0.356 -0.844,-0.4 -1,-0.067 -1.2,-0.355 -1.2,-1.688 z" id="path30"/>
          <path style="fill:#005693;stroke:none" d="m 265.974,267.381 -2.31,-5.308 c -0.022,-0.089 -0.044,-0.155 -0.044,-0.222 0,-0.155 0.022,-0.244 0.044,-0.333 l 1.622,-3.131 c 0.732,-1.444 0.91,-1.622 1.643,-1.666 0.666,-0.044 0.866,-0.155 0.866,-0.422 0,-0.222 -0.155,-0.311 -0.511,-0.311 -0.022,0 -0.266,0 -0.422,0.022 -0.377,0 -0.755,0.023 -0.955,0.023 -0.533,0 -0.866,0 -1.354,-0.045 -0.245,-0.022 -0.378,-0.022 -0.622,-0.022 -0.244,0 -0.355,0.089 -0.355,0.289 0,0.2 0.111,0.288 0.399,0.333 0.533,0.089 0.8,0.266 0.8,0.577 0,0.111 -0.089,0.355 -0.289,0.8 l -1.399,2.931 -1.399,-3.065 c -0.267,-0.755 -0.244,-0.71 -0.244,-0.821 0,-0.222 0.155,-0.311 0.51,-0.311 0.6,-0.022 0.866,-0.156 0.866,-0.4 0,-0.2 -0.133,-0.311 -0.399,-0.311 -0.111,0 -0.489,0.022 -0.822,0.022 -0.466,0.045 -0.91,0.045 -1.466,0.045 -0.466,0 -1.088,-0.022 -1.71,-0.045 -0.333,0 -0.733,-0.022 -0.821,-0.022 -0.334,0 -0.467,0.089 -0.467,0.333 0,0.156 0.156,0.311 0.4,0.356 0.955,0.133 0.91,0.088 1.577,1.554 l 2.376,5.197 0.044,0.177 v 0.089 c 0,0.111 -0.022,0.156 -0.088,0.267 l -1.844,3.575 -4.397,-9.705 c -0.155,-0.333 -0.244,-0.599 -0.244,-0.777 -0.022,-0.244 0.178,-0.377 0.533,-0.4 0.577,-0.044 0.733,-0.111 0.733,-0.377 0,-0.222 -0.156,-0.333 -0.533,-0.333 -0.067,0 -0.422,0.022 -0.711,0.044 -0.511,0.022 -1.221,0.045 -1.821,0.045 -0.822,0 -1.266,-0.023 -1.754,-0.045 -0.267,-0.022 -0.556,-0.044 -0.644,-0.044 -0.311,0 -0.489,0.111 -0.489,0.333 0,0.178 0.111,0.289 0.333,0.311 1.177,0.177 1.266,0.222 1.821,1.488 l 5.641,12.592 c 0.2,0.422 0.355,0.599 0.533,0.599 0.2,0 0.311,-0.133 0.577,-0.688 l 2.887,-6.019 2.488,6.108 c 0.2,0.466 0.333,0.621 0.555,0.621 0.178,0 0.266,-0.088 0.422,-0.466 l 5.063,-11.97 c 0.711,-1.688 0.977,-2.021 1.666,-2.11 0.822,-0.089 0.91,-0.133 0.91,-0.422 0,-0.177 -0.155,-0.311 -0.355,-0.311 -0.244,0 -0.422,0 -0.755,0.045 -0.222,0.022 -0.378,0.022 -0.688,0.022 -0.245,0 -0.867,-0.022 -1.422,-0.044 -0.244,0 -0.577,-0.023 -0.666,-0.023 -0.378,0 -0.533,0.089 -0.533,0.333 0,0.2 0.111,0.289 0.378,0.334 0.932,0.133 1.021,0.177 1.021,0.555 0,0.222 -0.155,0.755 -0.422,1.354 z" id="path31"/>
          <path style="fill:#005693;stroke:none" d="m 276.988,268.491 c 0,1.333 -0.2,1.621 -1.177,1.688 -0.666,0.044 -0.844,0.133 -0.844,0.4 0,0.244 0.133,0.333 0.489,0.333 0.044,0 0.244,0 0.377,-0.022 0.245,0 0.466,0 0.644,-0.022 0.244,-0.023 0.422,-0.023 0.511,-0.023 h 8.106 c 1.133,0 1.066,0.045 1.155,-1.155 0.044,-0.533 0.089,-0.977 0.155,-1.31 0.089,-0.355 0.133,-0.71 0.133,-0.888 0,-0.178 -0.111,-0.333 -0.266,-0.333 -0.155,0 -0.267,0.111 -0.378,0.288 -1.199,2.31 -1.798,2.71 -3.975,2.71 -1.954,0 -2.376,-0.333 -2.376,-1.954 v -4.176 c 0,-0.688 0.044,-0.71 1.466,-0.71 2.065,0 2.509,0.288 2.931,1.91 0.111,0.399 0.244,0.577 0.466,0.577 0.178,0 0.311,-0.178 0.289,-0.422 l -0.089,-1.799 c 0,-0.022 0.023,-0.288 0.045,-0.644 l 0.022,-0.488 0.044,-0.511 0.023,-0.489 c 0.022,-0.333 0.044,-0.599 0.044,-0.622 0,-0.244 -0.067,-0.333 -0.266,-0.333 -0.156,0 -0.267,0.111 -0.334,0.356 -0.533,1.554 -0.999,1.799 -3.42,1.799 -1.11,0 -1.221,-0.089 -1.221,-0.933 v -3.576 c 0,-1.332 0.111,-1.465 1.31,-1.465 1.133,0 2.199,0.133 2.843,0.377 0.799,0.311 1.021,0.555 1.621,1.799 0.133,0.289 0.266,0.422 0.422,0.422 0.178,0 0.266,-0.111 0.266,-0.422 v -2.199 c 0,-0.599 -0.044,-0.688 -0.31,-0.688 -0.089,0 -0.311,0 -0.511,0.022 -0.444,0.022 -0.933,0.045 -1.466,0.045 h -6.729 c -0.089,0 -0.267,0 -0.511,-0.023 -0.178,-0.022 -0.399,-0.022 -0.644,-0.022 -0.133,-0.022 -0.333,-0.022 -0.377,-0.022 -0.356,0 -0.489,0.089 -0.489,0.333 0,0.267 0.178,0.355 0.844,0.4 0.977,0.044 1.177,0.355 1.177,1.688 z" id="path32"/>
          <path style="fill:#005693;stroke:none" d="m 290.017,255.966 c -0.355,0 -0.488,0.089 -0.488,0.333 0,0.267 0.178,0.355 0.844,0.4 0.977,0.066 1.177,0.355 1.177,1.688 v 10.104 c 0,1.333 -0.2,1.621 -1.177,1.688 -0.666,0.044 -0.844,0.133 -0.844,0.4 0,0.244 0.133,0.333 0.488,0.333 h 0.134 c 0.111,0 0.177,0 0.266,-0.022 1.466,-0.045 1.821,-0.067 2.376,-0.067 0.489,0 1.111,0.022 1.844,0.045 0.866,0.044 0.733,0.044 0.888,0.044 h 0.133 c 0.356,0 0.489,-0.089 0.489,-0.333 0,-0.267 -0.178,-0.356 -0.844,-0.4 -0.999,-0.067 -1.199,-0.355 -1.199,-1.688 v -4.286 c 0,-0.466 0.066,-0.533 0.488,-0.533 1,0 1.133,0.089 1.688,1.111 l 2.843,5.396 c 0.311,0.577 0.444,0.689 0.799,0.689 l 1.51,-0.045 c 0.067,0 0.2,0 0.422,0.022 0.711,0.023 1.2,0.045 1.266,0.045 0.133,0.022 0.222,0.022 0.355,0.022 0.2,0 0.334,-0.111 0.334,-0.311 0,-0.155 -0.156,-0.311 -0.334,-0.333 -1.287,-0.156 -1.31,-0.156 -2.109,-1.599 l -2.288,-4.064 c -0.422,-0.733 -0.688,-1.044 -1.155,-1.333 2.199,-0.488 3.265,-1.643 3.265,-3.575 0,-2.31 -1.732,-3.731 -4.597,-3.731 -0.222,0 -0.999,0.022 -1.732,0.044 -0.777,0.023 -1.466,0.045 -2.154,0.045 -0.622,0 -1.022,0 -1.666,-0.045 -0.866,-0.044 -0.711,-0.044 -0.888,-0.044 z m 4.087,2.221 c 0,-1.266 0.2,-1.533 1.132,-1.533 1.999,0 3.265,1.311 3.265,3.398 0,2.021 -1.044,2.998 -3.198,2.998 -1.177,0 -1.199,0 -1.199,-0.866 z" id="path33"/>
          <path style="fill:#005693;stroke:none" d="m 314.399,257.409 c -0.022,-0.666 -0.045,-0.843 -0.156,-0.977 -0.244,-0.266 -2.043,-0.622 -3.264,-0.622 -2.732,0 -4.642,1.688 -4.642,4.109 0,1.976 0.933,3.042 3.776,4.331 2.42,1.088 3.331,2.065 3.331,3.531 0,1.488 -1.244,2.687 -2.754,2.687 -1.754,0 -3.353,-1.533 -3.798,-3.642 -0.044,-0.267 -0.155,-0.4 -0.31,-0.4 -0.2,0 -0.289,0.133 -0.311,0.4 -0.045,0.466 -0.089,1.576 -0.089,2.176 0,0.711 0.067,0.955 0.289,1.11 0.71,0.511 2.42,0.955 3.708,0.955 2.976,0 5.153,-2.021 5.153,-4.752 0,-2.021 -1.177,-3.42 -3.82,-4.531 -2.599,-1.088 -3.265,-1.71 -3.265,-3.042 0,-1.355 1.044,-2.332 2.51,-2.332 1.532,0 2.221,0.577 2.753,2.243 0.223,0.711 0.311,0.866 0.578,0.866 0.289,0 0.333,-0.089 0.333,-0.71 v -0.756 l -0.022,-0.377 z" id="path34"/>
          <path style="fill:#005693;stroke:none" d="m 326.432,263.161 -3.442,-5.152 c -0.334,-0.489 -0.467,-0.733 -0.467,-0.888 0,-0.289 0.289,-0.444 0.778,-0.444 0.777,0 1.088,-0.111 1.088,-0.4 0,-0.222 -0.156,-0.333 -0.489,-0.333 -0.155,0 -0.533,0.022 -0.844,0.044 -0.91,0.067 -1.688,0.089 -2.443,0.089 -0.71,0 -1.443,-0.044 -2.087,-0.111 -0.311,-0.022 -0.644,-0.044 -0.755,-0.044 -0.356,0 -0.511,0.111 -0.533,0.333 -0.022,0.2 0.111,0.333 0.333,0.377 1.31,0.156 1.554,0.311 2.554,1.755 l 3.997,5.796 c 0.156,0.2 0.2,0.355 0.2,0.6 v 3.708 c 0,1.333 -0.2,1.621 -1.177,1.688 -0.666,0.044 -0.844,0.133 -0.844,0.4 0,0.244 0.133,0.333 0.489,0.333 h 0.133 c 0.111,0 0.178,0 0.267,-0.022 1.487,-0.067 1.954,-0.089 2.442,-0.089 0.311,0 1.088,0.022 1.777,0.067 0.844,0.044 0.844,0.044 1.022,0.044 0.355,0 0.488,-0.089 0.488,-0.333 0,-0.267 -0.178,-0.356 -0.844,-0.4 -0.999,-0.067 -1.199,-0.355 -1.199,-1.688 v -4.308 c 0,-0.267 0.022,-0.378 0.178,-0.6 l 2.931,-4.375 c 1.288,-1.932 1.799,-2.42 2.554,-2.531 0.844,-0.134 0.888,-0.156 0.888,-0.422 0,-0.222 -0.155,-0.333 -0.422,-0.333 -0.111,0 -0.377,0.022 -0.644,0.066 -0.444,0.045 -0.732,0.067 -1.154,0.067 -0.245,0 -1.044,-0.045 -1.977,-0.089 -0.133,0 -0.266,0 -0.4,-0.022 h -0.222 c -0.4,0 -0.599,0.111 -0.599,0.355 0,0.289 0.222,0.378 0.977,0.355 0.577,0 0.932,0.222 0.932,0.622 0,0.333 -0.31,1 -0.777,1.71 z" id="path35"/>
          <path style="fill:#005693;stroke:none" d="m 342.729,257.587 c 0,-0.888 -0.067,-0.844 1.687,-0.844 1.977,0 2.599,0.489 2.932,2.31 0.066,0.377 0.155,0.511 0.377,0.511 0.245,0 0.356,-0.2 0.378,-0.733 l 0.155,-2.909 0.023,-0.289 c 0.022,-0.422 -0.089,-0.689 -0.333,-0.689 -0.156,0 -0.245,0.089 -0.334,0.333 -0.111,0.311 -0.288,0.489 -0.533,0.578 -0.355,0.089 -1.31,0.178 -2.22,0.178 h -7.684 c -0.711,0 -0.933,-0.156 -1.044,-0.667 -0.067,-0.266 -0.133,-0.333 -0.289,-0.333 -0.177,0 -0.266,0.089 -0.355,0.422 l -0.977,3.376 c -0.045,0.155 -0.067,0.266 -0.067,0.377 0,0.156 0.155,0.311 0.333,0.289 0.2,-0.022 0.311,-0.111 0.511,-0.489 0.333,-0.621 1.133,-1.51 1.643,-1.843 0.511,-0.333 1.177,-0.444 2.665,-0.444 0.444,0 0.578,0.133 0.578,0.644 v 11.126 c 0,1.333 -0.2,1.621 -1.177,1.688 -0.667,0.044 -0.844,0.133 -0.844,0.4 0,0.244 0.133,0.333 0.51,0.333 0.134,0 0.356,0 1,-0.044 0.622,-0.045 1.355,-0.067 1.665,-0.067 0.556,0 1.2,0.022 1.933,0.067 0.644,0.044 0.866,0.044 0.999,0.044 0.377,0 0.511,-0.089 0.511,-0.333 0,-0.267 -0.178,-0.356 -0.844,-0.4 -1,-0.067 -1.199,-0.355 -1.199,-1.688 z" id="path36"/>
          <path style="fill:#005693;stroke:none" d="m 352.673,268.491 c 0,1.333 -0.199,1.621 -1.177,1.688 -0.666,0.044 -0.844,0.133 -0.844,0.4 0,0.244 0.134,0.333 0.489,0.333 0.044,0 0.244,0 0.378,-0.022 0.244,0 0.466,0 0.644,-0.022 0.244,-0.023 0.422,-0.023 0.51,-0.023 h 8.106 c 1.133,0 1.066,0.045 1.155,-1.155 0.044,-0.533 0.089,-0.977 0.156,-1.31 0.088,-0.355 0.133,-0.71 0.133,-0.888 0,-0.178 -0.111,-0.333 -0.267,-0.333 -0.155,0 -0.266,0.111 -0.377,0.288 -1.199,2.31 -1.799,2.71 -3.975,2.71 -1.955,0 -2.377,-0.333 -2.377,-1.954 v -4.176 c 0,-0.688 0.045,-0.71 1.466,-0.71 2.065,0 2.51,0.288 2.932,1.91 0.111,0.399 0.244,0.577 0.466,0.577 0.177,0 0.311,-0.178 0.289,-0.422 l -0.089,-1.799 c 0,-0.022 0.022,-0.288 0.044,-0.644 l 0.022,-0.488 0.045,-0.511 0.022,-0.489 c 0.022,-0.333 0.044,-0.599 0.044,-0.622 0,-0.244 -0.066,-0.333 -0.266,-0.333 -0.156,0 -0.267,0.111 -0.333,0.356 -0.533,1.554 -1,1.799 -3.42,1.799 -1.111,0 -1.222,-0.089 -1.222,-0.933 v -3.576 c 0,-1.332 0.111,-1.465 1.311,-1.465 1.132,0 2.198,0.133 2.842,0.377 0.8,0.311 1.022,0.555 1.621,1.799 0.134,0.289 0.267,0.422 0.422,0.422 0.178,0 0.267,-0.111 0.267,-0.422 v -2.199 c 0,-0.599 -0.045,-0.688 -0.311,-0.688 -0.089,0 -0.311,0 -0.511,0.022 -0.444,0.022 -0.933,0.045 -1.466,0.045 h -6.729 c -0.088,0 -0.266,0 -0.51,-0.023 -0.178,-0.022 -0.4,-0.022 -0.644,-0.022 -0.134,-0.022 -0.334,-0.022 -0.378,-0.022 -0.355,0 -0.489,0.089 -0.489,0.333 0,0.267 0.178,0.355 0.844,0.4 0.978,0.044 1.177,0.355 1.177,1.688 z" id="path37"/>
          <path style="fill:#005693;stroke:none" d="m 372.721,257.587 c 0,-0.888 -0.067,-0.844 1.687,-0.844 1.977,0 2.599,0.489 2.932,2.31 0.066,0.377 0.155,0.511 0.377,0.511 0.245,0 0.356,-0.2 0.378,-0.733 l 0.155,-2.909 0.023,-0.289 c 0.022,-0.422 -0.089,-0.689 -0.333,-0.689 -0.156,0 -0.245,0.089 -0.334,0.333 -0.111,0.311 -0.288,0.489 -0.533,0.578 -0.355,0.089 -1.31,0.178 -2.22,0.178 h -7.684 c -0.711,0 -0.933,-0.156 -1.044,-0.667 -0.067,-0.266 -0.133,-0.333 -0.289,-0.333 -0.177,0 -0.266,0.089 -0.355,0.422 l -0.977,3.376 c -0.045,0.155 -0.067,0.266 -0.067,0.377 0,0.156 0.155,0.311 0.333,0.289 0.2,-0.022 0.311,-0.111 0.511,-0.489 0.333,-0.621 1.133,-1.51 1.643,-1.843 0.511,-0.333 1.177,-0.444 2.665,-0.444 0.444,0 0.578,0.133 0.578,0.644 v 11.126 c 0,1.333 -0.2,1.621 -1.177,1.688 -0.667,0.044 -0.844,0.133 -0.844,0.4 0,0.244 0.133,0.333 0.51,0.333 0.134,0 0.356,0 1,-0.044 0.622,-0.045 1.355,-0.067 1.666,-0.067 0.555,0 1.199,0.022 1.932,0.067 0.644,0.044 0.866,0.044 0.999,0.044 0.377,0 0.511,-0.089 0.511,-0.333 0,-0.267 -0.178,-0.356 -0.844,-0.4 -0.999,-0.067 -1.199,-0.355 -1.199,-1.688 z" id="path38"/>
          <path style="fill:#005693;stroke:none" d="m 389.467,255.966 c -0.356,0 -0.489,0.089 -0.489,0.333 0,0.267 0.178,0.355 0.844,0.4 0.977,0.066 1.177,0.355 1.177,1.688 v 10.104 c 0,1.333 -0.2,1.621 -1.177,1.688 -0.666,0.044 -0.844,0.133 -0.844,0.4 0,0.244 0.133,0.333 0.489,0.333 h 0.133 c 0.111,0 0.177,0 0.266,-0.022 1.466,-0.045 1.821,-0.067 2.377,-0.067 0.488,0 1.11,0.022 1.843,0.045 0.866,0.044 0.733,0.044 0.888,0.044 h 0.134 c 0.355,0 0.488,-0.089 0.488,-0.333 0,-0.267 -0.178,-0.356 -0.844,-0.4 -0.999,-0.067 -1.199,-0.355 -1.199,-1.688 v -4.286 c 0,-0.466 0.067,-0.533 0.489,-0.533 0.999,0 1.132,0.089 1.687,1.111 l 2.843,5.396 c 0.311,0.577 0.444,0.689 0.799,0.689 l 1.511,-0.045 c 0.066,0 0.199,0 0.421,0.022 0.711,0.023 1.2,0.045 1.266,0.045 0.134,0.022 0.222,0.022 0.356,0.022 0.2,0 0.333,-0.111 0.333,-0.311 0,-0.155 -0.156,-0.311 -0.333,-0.333 -1.288,-0.156 -1.311,-0.156 -2.11,-1.599 l -2.288,-4.064 c -0.422,-0.733 -0.688,-1.044 -1.154,-1.333 2.198,-0.488 3.264,-1.643 3.264,-3.575 0,-2.31 -1.732,-3.731 -4.597,-3.731 -0.222,0 -0.999,0.022 -1.732,0.044 -0.777,0.023 -1.466,0.045 -2.154,0.045 -0.622,0 -1.022,0 -1.666,-0.045 -0.866,-0.044 -0.711,-0.044 -0.888,-0.044 z m 4.086,2.221 c 0,-1.266 0.2,-1.533 1.132,-1.533 1.999,0 3.265,1.311 3.265,3.398 0,2.021 -1.044,2.998 -3.198,2.998 -1.177,0 -1.199,0 -1.199,-0.866 z" id="path39"/>
          <path style="fill:#005693;stroke:none" d="m 413.648,255.81 c -4.619,0 -8.172,3.309 -8.172,7.64 0,4.197 3.642,7.617 8.128,7.617 4.308,0 8.083,-3.575 8.083,-7.684 0,-4.286 -3.486,-7.573 -8.039,-7.573 z m -0.289,0.6 c 3.132,0 5.486,2.998 5.486,6.973 0,4.02 -2.199,7.085 -5.064,7.085 -3.02,0 -5.463,-3.376 -5.463,-7.551 0,-3.864 2.043,-6.507 5.041,-6.507 z" id="path40"/>
          <path style="fill:#005693;stroke:none" d="m 434.257,270.845 c 0.2,0 0.377,0 0.533,0.023 0.155,0.022 0.31,0.022 0.377,0.022 0.422,0 0.533,-0.134 0.578,-0.555 0.066,-1 0.111,-1.355 0.266,-2.132 0.045,-0.223 0.067,-0.445 0.067,-0.556 0,-0.244 -0.111,-0.377 -0.289,-0.377 -0.155,0 -0.244,0.066 -0.355,0.289 -0.955,1.798 -2.243,2.62 -4.087,2.62 -1.443,0 -1.932,-0.577 -1.932,-2.31 v -9.482 c 0,-1.333 0.2,-1.622 1.2,-1.688 0.666,-0.045 0.843,-0.133 0.843,-0.4 0,-0.244 -0.133,-0.333 -0.488,-0.333 -0.156,0 -0.422,0.022 -1.022,0.044 -0.688,0.045 -1.377,0.067 -1.665,0.067 -0.533,0 -1.111,-0.022 -1.932,-0.067 -0.6,-0.022 -0.867,-0.044 -1.022,-0.044 -0.355,0 -0.489,0.089 -0.489,0.333 0,0.267 0.178,0.355 0.844,0.4 0.977,0.066 1.177,0.355 1.177,1.688 v 10.104 c 0,1.333 -0.2,1.621 -1.177,1.688 -0.666,0.044 -0.844,0.133 -0.844,0.4 0,0.244 0.134,0.333 0.489,0.333 0.044,0 0.244,0 0.378,-0.022 0.244,0 0.466,0 0.644,-0.022 0.244,-0.023 0.421,-0.023 0.51,-0.023 z" id="path41"/>
          <path style="fill:#005693;stroke:none" d="m 451.594,267.026 -8.084,-10.349 c -0.488,-0.667 -0.488,-0.667 -0.888,-0.667 l -1.532,0.045 -2.021,-0.067 c -0.578,0 -0.755,0.067 -0.755,0.333 0,0.267 0.2,0.356 0.888,0.356 1.066,0.022 1.221,0.288 1.221,2.065 v 7.906 c 0,3.265 -0.044,3.42 -1.154,3.553 -1.022,0.134 -1.088,0.178 -1.088,0.444 0,0.2 0.155,0.311 0.421,0.311 0.134,0 0.533,-0.022 0.889,-0.066 0.555,-0.067 1.11,-0.089 1.688,-0.089 0.444,0 0.91,0.022 1.399,0.044 0.288,0.023 0.621,0.045 0.71,0.045 0.356,0 0.533,-0.111 0.533,-0.333 0,-0.2 -0.155,-0.334 -0.422,-0.334 -1.954,-0.155 -1.998,-0.244 -2.043,-3.842 l -0.089,-8.239 10.105,12.659 c 0.333,0.4 0.555,0.577 0.755,0.577 0.311,0 0.422,-0.2 0.422,-0.688 l -0.066,-12.437 c 0,-1.177 0.177,-1.377 1.221,-1.465 0.733,-0.067 0.933,-0.156 0.933,-0.445 0,-0.222 -0.156,-0.333 -0.444,-0.333 -0.112,0 -0.4,0.023 -0.667,0.045 -0.422,0.022 -0.977,0.044 -1.577,0.044 -0.666,0 -1.221,-0.022 -1.687,-0.066 -0.222,0 -0.467,-0.023 -0.533,-0.023 -0.356,0 -0.556,0.111 -0.556,0.311 -0.022,0.289 0.2,0.378 1.066,0.422 1.089,0.045 1.222,0.378 1.266,2.932 z" id="path42"/>
          <path style="fill:#005693;stroke:none" d="m 461.939,258.387 c 0,-1.333 0.2,-1.622 1.199,-1.688 0.667,-0.045 0.844,-0.133 0.844,-0.4 0,-0.244 -0.133,-0.333 -0.488,-0.333 h -0.134 c -0.111,0 -0.177,0 -0.266,0.022 -1.488,0.067 -1.71,0.067 -2.332,0.067 -0.666,0 -1.11,-0.022 -1.888,-0.045 -0.866,-0.044 -0.71,-0.044 -0.888,-0.044 h -0.133 c -0.356,0 -0.489,0.089 -0.489,0.333 0,0.267 0.178,0.355 0.844,0.4 0.977,0.066 1.177,0.355 1.177,1.688 v 10.104 c 0,1.333 -0.2,1.621 -1.177,1.688 -0.666,0.044 -0.844,0.133 -0.844,0.4 0,0.244 0.133,0.333 0.489,0.333 h 0.133 c 0.111,0 0.178,0 0.267,-0.022 1.354,-0.045 1.754,-0.067 2.376,-0.067 0.51,0 1.221,0.022 1.843,0.045 0.866,0.044 0.711,0.044 0.888,0.044 h 0.134 c 0.355,0 0.488,-0.089 0.488,-0.333 0,-0.267 -0.177,-0.356 -0.844,-0.4 -0.999,-0.067 -1.199,-0.355 -1.199,-1.688 z" id="path43"/>
          <path style="fill:#005693;stroke:none" d="m 480.874,267.248 c 0.022,-0.245 -0.111,-0.4 -0.311,-0.4 -0.2,0 -0.355,0.133 -0.533,0.466 -1.221,2.288 -2.376,3.154 -4.22,3.154 -3.197,0 -5.707,-3.154 -5.707,-7.151 0,-3.931 2.51,-6.907 5.819,-6.907 1.821,0 2.753,0.577 3.975,2.421 0.222,0.333 0.377,0.444 0.577,0.444 0.2,0 0.289,-0.111 0.289,-0.311 v -0.111 l -0.222,-1.666 c -0.089,-0.599 -0.222,-0.777 -0.822,-0.932 -0.91,-0.245 -2.576,-0.445 -3.642,-0.445 -5.063,0 -8.972,3.309 -8.972,7.573 0,2.243 1.31,4.642 3.265,6.063 1.465,1.066 3.309,1.621 5.374,1.621 1.532,0 3.22,-0.355 4.219,-0.888 0.533,-0.289 0.667,-0.466 0.711,-0.933 z" id="path44"/>
          <path style="fill:#005693;stroke:none" d="m 483.801,269.846 c -0.223,0.333 -0.378,0.6 -0.378,0.666 0.022,0.178 0.333,0.333 0.733,0.333 0.133,0 0.244,0 0.4,-0.022 0.177,0 0.399,-0.022 0.91,-0.022 0.311,0 -0.377,0 2.132,-0.022 h 1.666 l 1.643,-0.023 c 0.666,0 1.266,0.023 2.243,0.067 1.022,0.045 2.021,0.067 2.354,0.067 0.689,0 0.888,-0.156 0.888,-0.755 v -2.91 c 0,-0.355 -0.111,-0.533 -0.333,-0.533 -0.244,0 -0.355,0.134 -0.399,0.489 -0.2,1.221 -0.733,2.088 -1.555,2.443 -0.577,0.266 -2.132,0.511 -3.198,0.511 0,0 -0.799,-0.023 -1.799,-0.045 h -0.888 c -0.067,0 -0.156,-0.022 -0.244,-0.022 -0.533,-0.022 -0.756,-0.133 -0.756,-0.333 0,-0.067 0.112,-0.267 0.267,-0.489 l 8.372,-12.103 c 0.178,-0.267 0.289,-0.533 0.289,-0.711 0,-0.288 -0.244,-0.399 -0.799,-0.399 h -8.195 c -0.644,0 -0.844,-0.089 -0.888,-0.356 -0.134,-0.577 -0.156,-0.644 -0.4,-0.644 -0.222,0 -0.289,0.089 -0.422,0.533 l -0.977,3.287 c -0.045,0.155 -0.067,0.266 -0.067,0.333 0,0.156 0.111,0.267 0.244,0.267 0.156,0 0.311,-0.134 0.533,-0.467 1.244,-1.887 1.644,-2.043 4.953,-2.154 0.955,-0.044 1.91,-0.067 2.043,-0.067 0.377,0 0.622,0.111 0.622,0.289 0,0.045 -0.134,0.289 -0.311,0.555 z" id="path45"/>
          <path style="fill:#005693;stroke:none" d="m 507.046,263.161 -3.443,-5.152 c -0.333,-0.489 -0.466,-0.733 -0.466,-0.888 0,-0.289 0.289,-0.444 0.777,-0.444 0.777,0 1.088,-0.111 1.088,-0.4 0,-0.222 -0.155,-0.333 -0.488,-0.333 -0.156,0 -0.533,0.022 -0.844,0.044 -0.911,0.067 -1.688,0.089 -2.443,0.089 -0.711,0 -1.443,-0.044 -2.088,-0.111 -0.311,-0.022 -0.644,-0.044 -0.755,-0.044 -0.355,0 -0.51,0.111 -0.533,0.333 -0.022,0.2 0.111,0.333 0.334,0.377 1.31,0.156 1.554,0.311 2.553,1.755 l 3.998,5.796 c 0.155,0.2 0.2,0.355 0.2,0.6 v 3.708 c 0,1.333 -0.2,1.621 -1.177,1.688 -0.667,0.044 -0.844,0.133 -0.844,0.4 0,0.244 0.133,0.333 0.488,0.333 h 0.134 c 0.111,0 0.177,0 0.266,-0.022 1.488,-0.067 1.954,-0.089 2.443,-0.089 0.311,0 1.088,0.022 1.777,0.067 0.843,0.044 0.843,0.044 1.021,0.044 0.356,0 0.489,-0.089 0.489,-0.333 0,-0.267 -0.178,-0.356 -0.844,-0.4 -0.999,-0.067 -1.199,-0.355 -1.199,-1.688 v -4.308 c 0,-0.267 0.022,-0.378 0.177,-0.6 l 2.932,-4.375 c 1.288,-1.932 1.799,-2.42 2.554,-2.531 0.844,-0.134 0.888,-0.156 0.888,-0.422 0,-0.222 -0.155,-0.333 -0.422,-0.333 -0.111,0 -0.377,0.022 -0.644,0.066 -0.444,0.045 -0.733,0.067 -1.155,0.067 -0.244,0 -1.044,-0.045 -1.976,-0.089 -0.134,0 -0.267,0 -0.4,-0.022 h -0.222 c -0.4,0 -0.6,0.111 -0.6,0.355 0,0.289 0.222,0.378 0.977,0.355 0.578,0 0.933,0.222 0.933,0.622 0,0.333 -0.311,1 -0.777,1.71 z" id="path46"/>
        </g>
      </g>
      <g id="g105">
        <path style="fill:#005693;stroke:none" d="m 151.85,312.188 c -14.754,-4.935 -30.806,-18.37 -30.806,-35.592 l 0.002,-36.722 v -0.357 h 62.255 l 0.001,0.357 0.002,36.722 c 0,17.219 -13.384,29.379 -31.454,35.592 z" id="path47"/>
        <path style="fill:#b72846;stroke:none" d="m 152.09,311.349 c 17.699,-6.217 30.5,-18.128 30.5,-34.753 l -0.002,-36.365 h -30.493 z" id="path48"/>
        <path style="fill:#005693;stroke:none" d="m 156.908,248.988 1.625,-0.616 1.279,3.141 1.51,-0.58 c 0,0 2.317,5.899 2.483,6.534 0.445,0.408 1.376,4.14 1.376,4.14 l 0.322,-0.235 c 0.005,0 0.39,1.152 0.719,2.405 0.329,-1.253 0.714,-2.405 0.72,-2.405 l 0.321,0.235 c 0,0 0.932,-3.732 1.376,-4.14 0.166,-0.635 2.484,-6.534 2.484,-6.534 l 1.51,0.58 1.278,-3.141 1.625,0.616 1.775,0.689 -1.278,3.141 1.509,0.579 c 0,0 -2.225,5.935 -2.526,6.517 0.058,0.601 -1.748,3.998 -1.748,3.998 l 0.397,0.041 c 0.006,0.005 -1.289,2.968 -2.234,4.221 0.151,-0.01 0.419,-0.013 0.536,0.007 -0.356,1.122 -1.352,3.193 -2.066,4.135 0.007,0.02 0.383,-0.075 0.535,-0.017 -0.138,0.36 -0.193,0.703 -0.399,1.149 0.037,0.057 0.065,0.075 0.095,0.127 0.54,1.403 1.236,3.505 1.273,4.874 0.105,-0.115 0.264,-0.478 0.378,-0.571 0.777,2.24 1.159,3.806 1.175,3.841 0.096,0.258 0.182,1.151 0.1,1.617 -0.095,0.538 -0.607,1.505 -0.58,1.662 -0.046,0.045 2.981,7.905 2.981,7.905 l -1.323,0.537 -1.556,0.626 -3.058,-7.884 c -1.304,-0.409 -1.862,-0.894 -1.938,-1.02 -0.243,-0.405 -0.628,-0.844 -0.729,-1.1 -0.007,-0.022 -0.221,-0.437 -0.595,-1.25 -0.425,0.865 -0.663,1.226 -0.671,1.25 -0.101,0.256 -0.485,0.695 -0.729,1.1 -0.075,0.126 -0.634,0.611 -1.937,1.02 l -3.059,7.884 -1.555,-0.626 -1.324,-0.537 c 0,0 3.027,-7.86 2.982,-7.905 0.027,-0.157 -0.486,-1.124 -0.58,-1.662 -0.082,-0.466 0.003,-1.359 0.099,-1.617 0.017,-0.035 0.325,-1.234 1.103,-3.474 0.113,0.093 0.267,0.252 0.372,0.367 0.037,-1.37 0.625,-3.229 1.165,-4.632 -0.001,-0.045 0.382,0.231 0.433,0.3 -0.041,-0.291 -0.004,-0.678 0.084,-1.116 -0.017,-0.348 -0.104,-0.835 -0.1,-0.848 -0.713,-0.942 -1.709,-3.013 -2.065,-4.135 0.116,-0.02 0.385,-0.017 0.535,-0.007 -0.945,-1.253 -2.239,-4.216 -2.233,-4.221 l 0.396,-0.041 c 0,0 -1.805,-3.397 -1.747,-3.998 -0.302,-0.582 -2.527,-6.517 -2.527,-6.517 l 1.51,-0.579 -1.279,-3.141 z" id="path49"/>
        <g id="g51">
          <path style="fill:#005693;stroke:none" d="m 133.745,237.415 -1.53,-4.129 -3.118,-8.207 c -2.262,-5.957 -4.54,-11.955 -4.633,-12.145 l -0.203,-0.592 c 0,0 0.092,-0.277 0.295,-0.35 0.148,-0.093 1.18,0.46 2.2,0.784 0.712,0.225 1.568,0.605 2.589,0.834 1.08,0.252 1.525,0.448 2.276,1.481 0.346,0.547 0.342,1.411 0.321,1.994 0.986,-1.805 2.405,-2.972 4.677,-2.631 2.692,0.336 3.785,3.97 2.24,5.448 -0.475,0.565 -1.54,1.573 -0.494,2.174 0.218,0.087 0.476,0.026 0.476,0.026 0,0 -0.106,0.563 -0.283,0.816 -0.506,0.742 -2.408,1.576 -3.4,0.157 -0.42,-0.657 -0.493,-1.029 -0.323,-1.764 l 0.157,-0.641 c -0.015,-0.396 -0.53,-0.644 -1.049,-0.491 -0.196,0.07 -0.6,0.383 -0.672,1.542 -0.21,2.874 1.553,6.647 5.451,5.609 1.963,-0.523 2.486,-1.268 2.557,-2.355 -0.862,-0.29 -1.481,-1.104 -1.481,-2.063 0,-1.203 0.825,-2.177 2.028,-2.177 1.202,0 2.177,0.974 2.177,2.177 0,0.674 -0.307,1.276 -0.787,1.675 0.454,1.043 1.031,1.637 3.124,1.451 4.019,-0.357 4.505,-4.526 3.325,-7.155 -0.471,-1.082 -0.968,-1.225 -1.169,-1.218 -0.535,0.038 -0.928,0.444 -0.808,0.819 l 0.367,0.549 c 0.412,0.632 0.47,1.007 0.3,1.768 -0.447,1.673 -2.52,1.539 -3.249,1.015 -0.309,-0.232 -0.553,-0.719 -0.553,-0.719 0,0 0.381,-0.015 0.446,-0.138 0.783,-0.928 -0.581,-1.51 -1.221,-1.883 -1.943,-0.873 -2.159,-4.649 0.26,-5.879 1.93,-1.049 3.302,-0.57 4.706,0.445 0.143,0.104 0.27,0.26 0.363,0.364 -0.081,-0.19 -0.11,-0.22 -0.205,-0.411 -0.098,-0.21 -0.212,-0.451 -0.231,-0.718 -0.132,-0.819 0.013,-1.675 0.368,-2.315 0.354,-0.612 0.856,-1.11 1.292,-1.661 0.471,-0.597 1.006,-1.331 1.487,-2.528 0.076,-0.133 0.235,-0.584 0.352,-0.652 0.038,-0.032 0.082,-0.052 0.173,-0.063 0.09,0.011 0.146,0.031 0.183,0.063 0.118,0.068 0.277,0.519 0.353,0.652 0.481,1.197 1.016,1.931 1.487,2.528 0.435,0.551 0.937,1.049 1.292,1.661 0.354,0.64 0.499,1.496 0.367,2.315 -0.018,0.267 -0.132,0.508 -0.23,0.718 -0.096,0.191 -0.124,0.221 -0.206,0.411 0.094,-0.104 0.22,-0.26 0.364,-0.364 1.404,-1.015 2.776,-1.494 4.706,-0.445 2.418,1.23 2.203,5.006 0.26,5.879 -0.64,0.373 -2.004,0.955 -1.222,1.883 0.066,0.123 0.446,0.138 0.446,0.138 0,0 -0.243,0.487 -0.553,0.719 -0.729,0.524 -2.802,0.658 -3.248,-1.015 -0.17,-0.761 -0.112,-1.136 0.299,-1.768 l 0.368,-0.549 c 0.119,-0.375 -0.273,-0.781 -0.809,-0.819 -0.2,-0.007 -0.697,0.136 -1.168,1.218 -1.181,2.629 -0.694,6.798 3.325,7.155 2.092,0.186 2.67,-0.408 3.123,-1.451 -0.479,-0.399 -0.786,-1.001 -0.786,-1.675 0,-1.203 0.975,-2.177 2.177,-2.177 1.203,0 2.028,0.974 2.028,2.177 0,0.959 -0.62,1.773 -1.481,2.063 0.071,1.087 0.593,1.832 2.556,2.355 3.899,1.038 5.661,-2.735 5.451,-5.609 -0.071,-1.159 -0.476,-1.472 -0.671,-1.542 -0.519,-0.153 -1.034,0.095 -1.05,0.491 l 0.157,0.641 c 0.171,0.735 0.097,1.107 -0.323,1.764 -0.991,1.419 -2.894,0.585 -3.4,-0.157 -0.176,-0.253 -0.283,-0.816 -0.283,-0.816 0,0 0.259,0.061 0.476,-0.026 1.046,-0.601 -0.018,-1.609 -0.494,-2.174 -1.545,-1.478 -0.452,-5.112 2.24,-5.448 2.272,-0.341 3.692,0.826 4.678,2.631 -0.021,-0.583 -0.025,-1.447 0.32,-1.994 0.752,-1.033 1.197,-1.229 2.277,-1.481 1.021,-0.229 1.877,-0.609 2.589,-0.834 1.02,-0.324 2.052,-0.877 2.2,-0.784 0.202,0.073 0.295,0.35 0.295,0.35 l -0.204,0.592 c -0.093,0.19 -2.37,6.188 -4.632,12.145 l -3.119,8.207 -1.529,4.129 z" id="path50"/>
          <path style="fill:#ebdabe;stroke:none" d="m 134.157,236.704 c -0.047,-0.053 -8.963,-23.618 -9.149,-23.997 0.591,0.183 2.09,1.027 4.195,1.5 0.696,0.162 1.158,0.196 1.91,1.229 0.404,0.642 0.326,1.637 0.212,2.204 0.091,0.282 0.585,0.494 0.837,0.171 0.634,-1.1 1.552,-3.171 4.318,-2.757 2.263,0.276 3.056,3.36 1.884,4.433 -0.426,0.515 -2.044,2.101 -0.356,3.071 -0.406,0.595 -1.779,1.063 -2.409,0.161 -0.463,-0.724 -0.343,-0.833 -0.068,-1.991 0.056,-1.139 -1.237,-1.287 -1.795,-1.123 -0.521,0.17 -1.004,0.772 -1.083,2.054 -0.216,2.951 1.815,7.442 6.334,6.238 2.539,-0.676 2.789,-1.917 2.811,-3.439 -0.83,-0.046 -1.489,-0.734 -1.489,-1.576 0,-0.872 0.707,-1.579 1.578,-1.579 0.873,0 1.579,0.707 1.579,1.579 0,0.628 -0.367,1.171 -0.899,1.425 0.035,0.148 0.125,0.37 0.183,0.517 0.525,1.205 1.297,2.054 3.646,1.845 4.658,-0.414 5.03,-5.329 3.819,-8.028 -0.513,-1.178 -1.173,-1.578 -1.72,-1.559 -0.581,0.036 -1.745,0.617 -1.304,1.668 0.655,0.994 0.805,1.056 0.618,1.895 -0.284,1.062 -1.735,1.093 -2.319,0.673 1.254,-1.489 -0.808,-2.427 -1.385,-2.764 -1.468,-0.609 -1.778,-3.777 0.254,-4.81 2.458,-1.336 4.029,0.296 5.001,1.113 0.347,0.217 0.739,-0.15 0.728,-0.447 -0.245,-0.401 -0.792,-0.942 -0.816,-1.579 -0.116,-0.7 0.008,-1.419 0.294,-1.936 0.581,-1.001 1.752,-1.753 2.785,-4.194 1.032,2.441 2.199,3.193 2.779,4.194 0.286,0.517 0.411,1.236 0.294,1.936 -0.024,0.637 -0.57,1.178 -0.815,1.579 -0.011,0.297 0.381,0.664 0.728,0.447 0.972,-0.817 2.542,-2.449 5.001,-1.113 2.031,1.033 1.722,4.201 0.254,4.81 -0.577,0.337 -2.64,1.275 -1.385,2.764 -0.585,0.42 -2.036,0.389 -2.319,-0.673 -0.188,-0.839 -0.038,-0.901 0.618,-1.895 0.441,-1.051 -0.724,-1.632 -1.304,-1.668 -0.547,-0.019 -1.207,0.381 -1.72,1.559 -1.212,2.699 -0.839,7.614 3.819,8.028 2.349,0.209 3.121,-0.64 3.645,-1.845 0.059,-0.147 0.148,-0.369 0.183,-0.517 -0.531,-0.254 -0.899,-0.797 -0.899,-1.425 0,-0.872 0.707,-1.579 1.579,-1.579 0.872,0 1.579,0.707 1.579,1.579 0,0.842 -0.659,1.53 -1.489,1.576 0.022,1.522 0.271,2.763 2.811,3.439 4.519,1.204 6.55,-3.287 6.334,-6.238 -0.079,-1.282 -0.562,-1.884 -1.083,-2.054 -0.558,-0.164 -1.851,-0.016 -1.796,1.123 0.276,1.158 0.396,1.267 -0.067,1.991 -0.63,0.902 -2.004,0.434 -2.409,-0.161 1.688,-0.97 0.07,-2.556 -0.357,-3.071 -1.171,-1.073 -0.379,-4.157 1.884,-4.433 2.767,-0.414 3.684,1.657 4.319,2.757 0.252,0.323 0.746,0.111 0.837,-0.171 -0.114,-0.567 -0.193,-1.562 0.212,-2.204 0.752,-1.033 1.214,-1.067 1.909,-1.229 2.105,-0.473 3.605,-1.317 4.195,-1.5 -0.185,0.379 -9.101,23.944 -9.149,23.997 z" id="path51"/>
        </g>
        <g id="g61">
          <g id="g57">
            <path style="fill:#ebdabe;stroke:none" d="m 147.667,251.86 c 0.602,-1.959 0.125,-3.705 -0.016,-3.764 -0.164,-0.003 -1.746,1.027 -2.547,2.78 -0.019,-0.007 -3.244,8.492 -3.244,8.492 l 2.564,0.985 z" id="path52"/>
            <g id="g56">
              <path style="fill:#005693;stroke:none" d="m 147.367,257.659 c -0.348,1.109 -1.422,1.473 -2.04,1.307 0.018,-0.092 1.298,-3.355 1.474,-3.859 0.136,0.642 0.961,1.518 0.566,2.552 z" id="path53"/>
              <path style="fill:#ebdabe;stroke:none" d="m 149.523,254.404 c -0.48,-0.619 -1.11,-0.723 -1.372,-0.116 -0.3,0.782 2.422,1.975 1.314,4.624 -0.404,1.053 -2.003,1.84 -3.018,1.79 -0.598,-0.018 -1.183,-0.133 -1.562,-0.266 0,0 0.418,-1.077 0.418,-1.088 0.869,0.224 2.043,-0.318 2.443,-1.524 0.611,-1.765 -1.075,-2.362 -0.577,-3.67 0.108,-0.373 0.441,-0.844 0.874,-1.036 0.787,-0.265 1.573,0.113 2.081,0.803 -0.014,-0.005 -0.603,0.509 -0.601,0.483 z" id="path54"/>
              <path style="fill:#005693;stroke:none" d="m 141.45,255.387 c -0.483,1.058 0.072,2.047 0.642,2.338 0.048,-0.081 1.28,-3.362 1.486,-3.855 -0.54,0.367 -1.73,0.485 -2.128,1.517 z" id="path55"/>
              <path style="fill:#ebdabe;stroke:none" d="m 142.026,251.526 c 0.771,-0.138 1.309,0.205 1.097,0.832 -0.3,0.782 -3.121,-0.152 -4.07,2.557 -0.405,1.053 0.258,2.708 1.045,3.35 0.457,0.386 0.964,0.686 1.335,0.841 -0.006,0.006 0.42,-1.086 0.418,-1.088 -0.795,-0.415 -1.302,-1.597 -0.793,-2.761 0.727,-1.721 2.38,-1.037 2.885,-2.341 0.169,-0.349 0.237,-0.923 0.044,-1.355 -0.408,-0.724 -1.245,-0.969 -2.085,-0.796 0.015,0.005 0.108,0.782 0.124,0.761 z" id="path56"/>
            </g>
          </g>
          <path style="fill:#ebdabe;stroke:none" d="m 140.239,263.666 -6.964,18.053 2.561,0.983 6.965,-18.053 z" id="path57"/>
          <path style="fill:#ebdabe;stroke:none" d="m 132.419,283.936 -1.865,4.844 c 0.282,0.091 2.343,0.915 2.571,0.957 l 1.855,-4.817 z" id="path58"/>
          <path style="fill:#ebdabe;stroke:none" d="m 132.414,281.906 3.829,1.47 c 0.247,0.094 -0.268,1.433 -0.515,1.339 l -3.829,-1.47 c -0.247,-0.095 0.268,-1.434 0.515,-1.339 z" id="path59"/>
          <path style="fill:#ebdabe;stroke:none" d="m 144.097,260.849 -2.388,-0.916 c -0.561,-0.216 -1.191,0.065 -1.406,0.626 l -0.467,1.216 c -0.216,0.561 0.065,1.191 0.626,1.406 l 2.388,0.917 c 0.561,0.215 1.191,-0.065 1.406,-0.626 l 0.467,-1.217 c 0.216,-0.561 -0.065,-1.19 -0.626,-1.406 z" id="path60"/>
          <path style="fill:#ebdabe;stroke:none" d="m 132.851,290.168 -2.388,-0.917 c -0.561,-0.215 -1.191,0.065 -1.406,0.626 l -0.467,1.217 c -0.216,0.561 0.065,1.19 0.626,1.405 l 2.388,0.917 c 0.561,0.215 1.191,-0.065 1.406,-0.626 l 0.467,-1.216 c 0.215,-0.561 -0.065,-1.191 -0.626,-1.406 z" id="path61"/>
        </g>
        <g id="g71">
          <g id="g67">
            <path style="fill:#ebdabe;stroke:none" d="m 127.921,251.86 c -0.602,-1.959 -0.125,-3.705 0.016,-3.764 0.164,-0.003 1.746,1.027 2.547,2.78 0.019,-0.007 3.244,8.492 3.244,8.492 l -2.564,0.985 z" id="path62"/>
            <g id="g66">
              <path style="fill:#005693;stroke:none" d="m 128.221,257.659 c 0.348,1.109 1.422,1.473 2.04,1.307 -0.018,-0.092 -1.298,-3.355 -1.475,-3.859 -0.135,0.642 -0.96,1.518 -0.565,2.552 z" id="path63"/>
              <path style="fill:#ebdabe;stroke:none" d="m 126.065,254.404 c 0.48,-0.619 1.11,-0.723 1.372,-0.116 0.3,0.782 -2.422,1.975 -1.314,4.624 0.404,1.053 2.003,1.84 3.018,1.79 0.598,-0.018 1.183,-0.133 1.561,-0.266 0,0 -0.417,-1.077 -0.417,-1.088 -0.869,0.224 -2.043,-0.318 -2.443,-1.524 -0.611,-1.765 1.075,-2.362 0.577,-3.67 -0.108,-0.373 -0.441,-0.844 -0.874,-1.036 -0.787,-0.265 -1.573,0.113 -2.081,0.803 0.014,-0.005 0.603,0.509 0.601,0.483 z" id="path64"/>
              <path style="fill:#005693;stroke:none" d="m 134.138,255.387 c 0.483,1.058 -0.072,2.047 -0.642,2.338 -0.048,-0.081 -1.28,-3.362 -1.486,-3.855 0.54,0.367 1.729,0.485 2.128,1.517 z" id="path65"/>
              <path style="fill:#ebdabe;stroke:none" d="m 133.562,251.526 c -0.771,-0.138 -1.309,0.205 -1.097,0.832 0.3,0.782 3.121,-0.152 4.07,2.557 0.404,1.053 -0.258,2.708 -1.045,3.35 -0.457,0.386 -0.964,0.686 -1.335,0.841 0.022,0.022 -0.429,-1.078 -0.418,-1.088 0.795,-0.415 1.302,-1.597 0.793,-2.761 -0.727,-1.721 -2.38,-1.037 -2.885,-2.341 -0.169,-0.349 -0.237,-0.923 -0.044,-1.355 0.407,-0.724 1.245,-0.969 2.085,-0.796 -0.015,0.005 -0.108,0.782 -0.124,0.761 z" id="path66"/>
            </g>
          </g>
          <path style="fill:#ebdabe;stroke:none" d="m 139.55,274.522 2.757,7.217 -2.562,0.983 -1.666,-4.394 z m -4.202,-10.856 2.178,5.648 -1.47,3.805 -3.268,-8.47 z" id="path67"/>
          <path style="fill:#ebdabe;stroke:none" d="m 143.163,283.941 1.85,4.825 c -0.282,0.091 -2.343,0.916 -2.571,0.957 l -1.84,-4.799 z" id="path68"/>
          <path style="fill:#ebdabe;stroke:none" d="m 143.118,281.917 -3.829,1.47 c -0.247,0.094 0.268,1.433 0.515,1.339 l 3.829,-1.47 c 0.247,-0.095 -0.268,-1.434 -0.515,-1.339 z" id="path69"/>
          <path style="fill:#ebdabe;stroke:none" d="m 131.447,260.864 2.388,-0.917 c 0.561,-0.215 1.191,0.065 1.406,0.626 l 0.467,1.217 c 0.216,0.561 -0.065,1.19 -0.626,1.406 l -2.388,0.916 c -0.561,0.216 -1.191,-0.065 -1.406,-0.626 l -0.467,-1.216 c -0.215,-0.561 0.065,-1.191 0.626,-1.406 z" id="path70"/>
          <path style="fill:#ebdabe;stroke:none" d="m 142.737,290.168 2.388,-0.917 c 0.561,-0.215 1.191,0.065 1.406,0.626 l 0.467,1.217 c 0.216,0.561 -0.065,1.19 -0.626,1.405 l -2.388,0.917 c -0.561,0.215 -1.191,-0.065 -1.406,-0.626 l -0.467,-1.216 c -0.216,-0.561 0.065,-1.191 0.626,-1.406 z" id="path71"/>
        </g>
        <g id="g86">
          <g id="g76">
            <path style="fill:#ebdabe;stroke:none" d="m 158.518,256.917 -2.772,-7.016 1.037,-0.387 2.112,5.322 c -0.123,0.362 -0.288,1.426 -0.377,2.081 z" id="path72"/>
            <g id="g75">
              <g id="g74">
                <path style="fill:#ebdabe;stroke:none" d="m 170.047,286.357 1.519,0.656 0.569,-1.522 2.753,7.207 -2.012,0.794 z" id="path73"/>
                <path style="fill:#ebdabe;stroke:none" d="m 162.084,258.254 c 0.046,0.645 -0.227,1.816 -0.538,2.803 -1.213,-0.614 -2.273,-1.421 -2.363,-1.877 -0.437,-0.971 -0.116,-2.787 0.252,-3.772 0.839,0.408 2.26,1.671 2.649,2.846 z" id="path74"/>
              </g>
              <path style="fill:#ebdabe;stroke:none" d="m 161.474,261.668 c 0.325,0.502 1.333,3.174 1.368,3.45 -0.437,-0.202 -2.357,-0.805 -2.891,-1.334 -0.818,-0.851 -1.753,-2.918 -2.003,-3.621 0.196,0.213 3.054,0.709 3.526,1.505 z" id="path75"/>
            </g>
          </g>
          <path style="fill:#ebdabe;stroke:none" d="m 163.097,265.943 c 0.24,0.37 0.832,1.923 1.14,2.823 -0.017,0.067 -0.048,0.388 -0.094,0.557 -0.722,-0.276 -2.141,-0.84 -2.569,-1.264 -0.818,-0.85 -1.808,-3.015 -2.057,-3.718 0.196,0.213 3.108,0.806 3.58,1.602 z" id="path76"/>
          <path style="fill:#ebdabe;stroke:none" d="m 161.138,268.565 c 0.154,0.166 1.617,0.45 2.607,0.988 -0.015,0.137 -0.564,1.688 -0.807,2.483 -0.767,-0.949 -1.569,-2.82 -1.8,-3.471 z" id="path77"/>
          <path style="fill:#ebdabe;stroke:none" d="m 169.193,281.951 c -0.313,-0.145 -1.466,-0.519 -2.237,-0.903 0,-0.043 0.031,-0.186 0.031,-0.235 -0.055,-0.013 -0.297,-0.019 -0.434,-0.031 0.471,-0.553 0.918,-1.418 1.307,-2.286 0.324,0.503 1.298,3.179 1.333,3.455 z" id="path78"/>
          <path style="fill:#ebdabe;stroke:none" d="m 169.579,282.813 c 0.325,0.502 1.298,3.179 1.333,3.454 -0.437,-0.201 -2.322,-0.809 -2.856,-1.338 -0.561,-0.583 -1.176,-1.737 -1.589,-2.632 0.051,-0.198 0.328,-0.762 0.334,-0.802 0.875,0.304 2.426,0.725 2.778,1.318 z" id="path79"/>
          <path style="fill:#ebdabe;stroke:none" d="m 156.555,253.354 -0.991,0.383 2.238,5.886 c 0.147,0.068 1.064,0.239 1.316,0.402 -0.17,-0.489 -2.563,-6.671 -2.563,-6.671 z" id="path80"/>
          <g id="g82">
            <path style="fill:#ebdabe;stroke:none" d="m 161.003,255.999 -2.775,-7.051 -1.03,0.407 2.133,5.35 c 0.332,0.187 1.168,0.867 1.672,1.294 z" id="path81"/>
            <path style="fill:#ebdabe;stroke:none" d="m 161.972,261.477 c 0.094,0.59 1.135,3.177 1.294,3.405 0.189,-0.442 1.211,-2.102 1.254,-2.852 0.038,-1.179 -0.65,-3.341 -0.935,-4.031 -0.003,0.29 -1.795,2.57 -1.613,3.478 z" id="path82"/>
          </g>
          <path style="fill:#ebdabe;stroke:none" d="m 163.627,265.74 c -0.182,-0.908 1.585,-3.297 1.588,-3.587 0.184,0.446 0.547,1.552 0.771,2.598 -0.101,0.459 -0.178,0.895 -0.209,1.252 -0.106,-0.108 -0.303,-0.29 -0.403,-0.353 -0.299,0.658 -0.666,1.551 -0.928,2.414 -0.352,-0.868 -0.762,-1.968 -0.819,-2.324 z" id="path83"/>
          <path style="fill:#ebdabe;stroke:none" d="m 168.258,277.942 c 0.095,0.591 1.392,3.544 1.551,3.772 0.189,-0.442 1.059,-2.544 1.102,-3.294 0.039,-1.18 -0.809,-3.465 -1.095,-4.154 -0.002,0.289 -1.74,2.768 -1.558,3.676 z" id="path84"/>
          <path style="fill:#ebdabe;stroke:none" d="m 170.098,282.613 c 0.095,0.591 1.163,3.232 1.321,3.46 0.19,-0.442 1.184,-2.156 1.227,-2.906 0.039,-1.179 -0.665,-3.593 -0.95,-4.282 -0.003,0.289 -1.78,2.821 -1.598,3.728 z" id="path85"/>
          <path style="fill:#ebdabe;stroke:none" d="m 160.064,252.007 0.993,-0.379 2.276,5.872 c -0.064,0.149 -0.631,0.889 -0.71,1.179 -0.2,-0.476 -2.559,-6.672 -2.559,-6.672 z" id="path86"/>
        </g>
        <g id="g104">
          <g id="g91">
            <path style="fill:#ebdabe;stroke:none" d="m 173.926,256.917 2.773,-7.016 -1.038,-0.387 -2.111,5.322 c 0.122,0.362 0.288,1.426 0.376,2.081 z" id="path87"/>
            <g id="g90">
              <g id="g89">
                <path style="fill:#ebdabe;stroke:none" d="m 162.397,286.357 -1.519,0.656 -0.569,-1.522 -2.752,7.207 2.011,0.794 z" id="path88"/>
                <path style="fill:#ebdabe;stroke:none" d="m 170.361,258.254 c -0.047,0.645 0.226,1.816 0.537,2.803 1.214,-0.614 2.273,-1.421 2.363,-1.877 0.438,-0.971 0.117,-2.787 -0.251,-3.772 -0.839,0.408 -2.26,1.671 -2.649,2.846 z" id="path89"/>
              </g>
              <path style="fill:#ebdabe;stroke:none" d="m 170.97,261.668 c -0.325,0.502 -1.333,3.174 -1.367,3.45 0.436,-0.202 2.356,-0.805 2.89,-1.334 0.818,-0.851 1.753,-2.918 2.003,-3.621 -0.196,0.213 -3.054,0.709 -3.526,1.505 z" id="path90"/>
            </g>
          </g>
          <path style="fill:#ebdabe;stroke:none" d="m 169.347,265.943 c -0.324,0.502 -1.298,3.179 -1.332,3.455 0.436,-0.202 2.322,-0.81 2.856,-1.339 0.818,-0.85 1.807,-3.015 2.057,-3.718 -0.196,0.213 -3.108,0.806 -3.581,1.602 z" id="path91"/>
          <path style="fill:#ebdabe;stroke:none" d="m 167.8,270.129 c -0.325,0.503 -1.299,3.18 -1.333,3.455 0.436,-0.202 2.322,-0.809 2.856,-1.338 0.818,-0.851 1.734,-2.978 1.983,-3.681 -0.196,0.213 -3.034,0.768 -3.506,1.564 z" id="path92"/>
          <path style="fill:#ebdabe;stroke:none" d="m 166.141,274.43 c -0.325,0.503 -1.227,2.99 -1.261,3.266 0.436,-0.202 2.592,-0.867 3.126,-1.395 0.818,-0.851 1.599,-2.88 1.849,-3.583 -0.195,0.213 -3.242,0.916 -3.714,1.712 z" id="path93"/>
          <path style="fill:#ebdabe;stroke:none" d="m 164.585,278.496 c -0.325,0.503 -1.298,3.179 -1.333,3.455 0.436,-0.202 2.322,-0.81 2.856,-1.339 0.818,-0.85 1.607,-2.959 1.857,-3.663 -0.196,0.213 -2.908,0.751 -3.38,1.547 z" id="path94"/>
          <path style="fill:#ebdabe;stroke:none" d="m 162.865,282.813 c -0.324,0.502 -1.298,3.179 -1.332,3.454 0.436,-0.201 2.322,-0.809 2.856,-1.338 0.818,-0.851 1.753,-2.917 2.002,-3.621 -0.195,0.213 -3.053,0.709 -3.526,1.505 z" id="path95"/>
          <path style="fill:#ebdabe;stroke:none" d="m 175.889,253.354 0.991,0.383 -2.237,5.886 c -0.148,0.068 -1.064,0.239 -1.317,0.402 0.17,-0.489 2.563,-6.671 2.563,-6.671 z" id="path96"/>
          <g id="g98">
            <path style="fill:#ebdabe;stroke:none" d="m 171.442,255.999 2.774,-7.051 1.031,0.407 -2.133,5.35 c -0.333,0.187 -1.168,0.867 -1.672,1.294 z" id="path97"/>
            <path style="fill:#ebdabe;stroke:none" d="m 170.473,261.477 c -0.095,0.59 -1.136,3.177 -1.295,3.405 -0.189,-0.442 -1.21,-2.102 -1.253,-2.852 -0.039,-1.179 0.649,-3.341 0.934,-4.031 0.003,0.29 1.796,2.57 1.614,3.478 z" id="path98"/>
          </g>
          <path style="fill:#ebdabe;stroke:none" d="m 168.818,265.74 c -0.095,0.59 -1.163,3.231 -1.321,3.459 -0.19,-0.442 -1.184,-2.156 -1.227,-2.906 -0.039,-1.179 0.674,-3.45 0.96,-4.14 0.002,0.29 1.77,2.679 1.588,3.587 z" id="path99"/>
          <path style="fill:#ebdabe;stroke:none" d="m 167.167,269.887 c -0.095,0.59 -1.163,3.231 -1.321,3.459 -0.19,-0.442 -1.298,-2.371 -1.341,-3.121 -0.038,-1.179 0.818,-3.158 1.103,-3.848 0.003,0.29 1.74,2.602 1.559,3.51 z" id="path100"/>
          <path style="fill:#ebdabe;stroke:none" d="m 165.522,274.193 c -0.095,0.59 -1.09,3.042 -1.248,3.27 -0.19,-0.442 -1.184,-2.155 -1.227,-2.906 -0.039,-1.179 0.649,-3.341 0.934,-4.03 0.003,0.289 1.722,2.758 1.541,3.666 z" id="path101"/>
          <path style="fill:#ebdabe;stroke:none" d="m 163.957,278.255 c -0.095,0.591 -1.162,3.231 -1.321,3.459 -0.189,-0.442 -1.184,-2.155 -1.227,-2.905 -0.038,-1.18 0.65,-3.342 0.935,-4.031 0.003,0.289 1.795,2.57 1.613,3.477 z" id="path102"/>
          <path style="fill:#ebdabe;stroke:none" d="m 162.346,282.613 c -0.094,0.591 -1.162,3.232 -1.321,3.46 -0.189,-0.442 -1.184,-2.156 -1.227,-2.906 -0.038,-1.179 0.65,-3.341 0.935,-4.031 0.003,0.289 1.795,2.57 1.613,3.477 z" id="path103"/>
          <path style="fill:#ebdabe;stroke:none" d="m 172.38,252.007 -0.992,-0.379 -2.276,5.872 c 0.064,0.149 0.631,0.889 0.709,1.179 0.201,-0.476 2.559,-6.672 2.559,-6.672 z" id="path104"/>
        </g>
      </g>
    </g>
  </g>
</svg>